<?xml version="1.0" encoding="utf-8"?>
<!-- Generator: Adobe Illustrator 27.0.0, SVG Export Plug-In . SVG Version: 6.00 Build 0)  -->
<svg version="1.1" id="Layer_1" xmlns="http://www.w3.org/2000/svg" xmlns:xlink="http://www.w3.org/1999/xlink" x="0px" y="0px"
	 viewBox="0 0 512 512" style="enable-background:new 0 0 512 512;" xml:space="preserve">
<style type="text/css">
	.st0{fill:url(#SVGID_1_);}
</style>
<linearGradient id="SVGID_1_" gradientUnits="userSpaceOnUse" x1="103.1117" y1="405.4449" x2="416.6137" y2="99.456">
	<stop  offset="0" style="stop-color:#195667"/>
	<stop  offset="0.4022" style="stop-color:#44B7C3"/>
	<stop  offset="0.6947" style="stop-color:#F2A710"/>
	<stop  offset="1" style="stop-color:#F03753"/>
</linearGradient>
<path class="st0" d="M279.1,0.8l106,66.7c4.7,3,4.7,9.8-0.1,12.7l-106.8,65.4c-5,3.1-11.4-0.6-11.4-6.4l0.8-132.1
	C267.7,1.2,274.1-2.3,279.1,0.8z M267.6,189l-0.8,132.1c0,5.9,6.4,9.5,11.4,6.4L385,262.1c4.7-2.9,4.8-9.8,0.1-12.7l-106-66.7
	C274.1,179.6,267.7,183.1,267.6,189z M393.4,91.7l-106,66.7c-4.7,3-4.7,9.8,0.1,12.7l106.8,65.4c5,3.1,11.4-0.6,11.4-6.4L404.9,98
	C404.8,92.2,398.4,88.6,393.4,91.7z M107.6,280.5l-0.8,132.1c0,5.9,6.4,9.5,11.4,6.4L225,353.6c4.7-2.9,4.8-9.8,0.1-12.7l-106-66.7
	C114.1,271.1,107.6,274.6,107.6,280.5z M233.4,365.7l-106,66.7c-4.7,3-4.7,9.8,0.1,12.7l106.8,65.4c5,3.1,11.4-0.6,11.4-6.4
	l-0.8-132.1C244.8,366.1,238.3,362.5,233.4,365.7z M237.6,182.7l-106,66.7c-4.7,3-4.7,9.8,0.1,12.7l106.8,65.4
	c5,3.1,11.4-0.6,11.4-6.4L249.1,189C249.1,183.1,242.6,179.6,237.6,182.7z"/>
</svg>
