<svg xmlns="http://www.w3.org/2000/svg" xmlns:xlink="http://www.w3.org/1999/xlink" xml:space="preserve" viewBox="0 0 638.5 189.8"><defs><path id="a" d="m63.9.4 39.3 24.7c1.7 1.1 1.7 3.6 0 4.7L63.5 54.1c-1.9 1.1-4.2-.2-4.2-2.4l.3-49C59.6.6 62-.7 63.9.4m-4.3 69.8-.3 49c0 2.2 2.4 3.5 4.2 2.4l39.6-24.3c1.8-1.1 1.8-3.6 0-4.7L63.9 67.9c-1.9-1.2-4.3.1-4.3 2.3m46.6-36.1L67 58.9c-1.7 1.1-1.7 3.6 0 4.7l39.6 24.3c1.9 1.1 4.2-.2 4.2-2.4l-.3-49c0-2.2-2.4-3.5-4.3-2.4M.3 104.1l-.3 49c0 2.2 2.4 3.5 4.2 2.4l39.6-24.3c1.8-1.1 1.8-3.6 0-4.7L4.5 101.8c-1.8-1.2-4.2.1-4.2 2.3m46.6 31.6L7.6 160.4c-1.7 1.1-1.7 3.6 0 4.7l39.6 24.3c1.9 1.1 4.2-.2 4.2-2.4l-.3-49c.1-2.2-2.3-3.5-4.2-2.3m1.6-67.8L9.2 92.6c-1.7 1.1-1.7 3.6 0 4.7l39.6 24.3c1.9 1.1 4.2-.2 4.2-2.4l-.3-49c0-2.2-2.4-3.5-4.2-2.3"/></defs><clipPath id="b"><use xlink:href="#a" style="overflow:visible"/></clipPath><path d="m7.5 121.9.8.8h-.8z" style="clip-path:url(#b);fill:#297886"/><path d="m7.5 120.8 1.8 1.9h-1l-.8-.8z" style="clip-path:url(#b);fill:#297987"/><path d="m7.5 119.7 2.9 3H9.3l-1.8-1.9z" style="clip-path:url(#b);fill:#2a7a88"/><path d="m7.5 118.7 3.9 4h-1l-2.9-3z" style="clip-path:url(#b);fill:#2a7b89"/><path d="m7.5 117.6 5 5.1h-1.1l-3.9-4z" style="clip-path:url(#b);fill:#2b7c8a"/><path d="m7.5 116.5 6 6.2h-1l-5-5.1z" style="clip-path:url(#b);fill:#2b7d8c"/><path d="m7.5 115.4 7.1 7.3h-1.1l-6-6.2z" style="clip-path:url(#b);fill:#2c7e8d"/><path d="m7.5 114.4 8.1 8.3h-1l-7.1-7.3z" style="clip-path:url(#b);fill:#2c7f8e"/><path d="m7.5 113.3 9.2 9.4h-1.1l-8.1-8.3z" style="clip-path:url(#b);fill:#2c808f"/><path d="m7.5 112.2 10.2 10.5h-1l-9.2-9.4z" style="clip-path:url(#b);fill:#2d8190"/><path d="m7.5 111.1 11.3 11.6h-1.1L7.5 112.2z" style="clip-path:url(#b);fill:#2d8391"/><path d="m7.5 110.1 12.3 12.6h-1L7.5 111.1z" style="clip-path:url(#b);fill:#2e8492"/><path d="m7.5 109 13.4 13.7h-1.1L7.5 110.1z" style="clip-path:url(#b);fill:#2e8593"/><path d="m7.5 107.9 14.4 14.8h-1L7.5 109z" style="clip-path:url(#b);fill:#2f8694"/><path d="M7.5 106.8 23 122.7h-1.1L7.5 107.9z" style="clip-path:url(#b);fill:#2f8795"/><path d="M7.5 105.8 24 122.7h-1L7.5 106.8z" style="clip-path:url(#b);fill:#308896"/><path d="m7.5 104.7 17.6 18H24L7.5 105.8z" style="clip-path:url(#b);fill:#308997"/><path d="m7.5 103.6 18.6 19.1h-1l-17.6-18z" style="clip-path:url(#b);fill:#318b98"/><path d="m7.5 102.5 19.7 20.2h-1.1L7.5 103.6z" style="clip-path:url(#b);fill:#318c99"/><path d="m7.5 101.5 20.7 21.2h-1L7.5 102.5z" style="clip-path:url(#b);fill:#328d9b"/><path d="m7.5 100.4 21.8 22.3h-1.1L7.5 101.5z" style="clip-path:url(#b);fill:#328e9c"/><path d="m7.5 99.3 22.8 23.4h-1L7.5 100.4z" style="clip-path:url(#b);fill:#338f9d"/><path d="m7.5 98.2 23.9 24.5h-1.1L7.5 99.3z" style="clip-path:url(#b);fill:#33909e"/><path d="m7.5 97.2 24.9 25.5h-1L7.5 98.2z" style="clip-path:url(#b);fill:#34929f"/><path d="m7.5 96.1 26 26.6h-1.1L7.5 97.2z" style="clip-path:url(#b);fill:#3493a0"/><path d="m7.5 95 27 27.7h-1l-26-26.6z" style="clip-path:url(#b);fill:#3594a1"/><path d="m7.5 93.9 28 28.8h-1L7.5 95z" style="clip-path:url(#b);fill:#3595a2"/><path d="m7.5 92.9 29.1 29.8h-1.1l-28-28.8z" style="clip-path:url(#b);fill:#3697a4"/><path d="m7.5 91.8 30.1 30.9h-1L7.5 92.9z" style="clip-path:url(#b);fill:#3798a5"/><path d="m7.5 90.7 31.2 32h-1.1L7.5 91.8z" style="clip-path:url(#b);fill:#3799a6"/><path d="m7.5 89.9.1-.1 32.1 32.9h-1l-31.2-32z" style="clip-path:url(#b);fill:#389aa7"/><path d="m7.6 89.8.5-.6 32.7 33.5h-1.1z" style="clip-path:url(#b);fill:#389ba8"/><path d="m8.1 89.2.6-.5 33.1 34h-1z" style="clip-path:url(#b);fill:#399daa"/><path d="m8.7 88.7.5-.5 33.7 34.5h-1.1z" style="clip-path:url(#b);fill:#399eab"/><path d="m9.2 88.2.6-.5 34.1 35h-1z" style="clip-path:url(#b);fill:#3a9fac"/><path d="m9.8 87.7.5-.6L45 122.7h-1.1z" style="clip-path:url(#b);fill:#3ba1ad"/><path d="m10.3 87.1.5-.5L46 122.7h-1z" style="clip-path:url(#b);fill:#3ba2ae"/><path d="m10.8 86.6.6-.5 35.7 36.6H46z" style="clip-path:url(#b);fill:#3ca3b0"/><path d="m11.4 86.1.5-.5 36.2 37.1h-1z" style="clip-path:url(#b);fill:#3ca4b1"/><path d="m11.9 85.6.5-.6 36.8 37.7h-1.1z" style="clip-path:url(#b);fill:#3da6b2"/><path d="m12.4 85 .6-.5 37.2 38.2h-1z" style="clip-path:url(#b);fill:#3da7b3"/><path d="m13 84.5.5-.5 37.8 38.7h-1.1z" style="clip-path:url(#b);fill:#3ea8b5"/><path d="m13.5 84 .6-.5 38.2 39.2h-1z" style="clip-path:url(#b);fill:#3faab6"/><path d="m14.1 83.5.5-.5 38.5 39.4v.3h-.8z" style="clip-path:url(#b);fill:#3fabb7"/><path d="m14.6 83 .5-.6 38 38.9v1.1z" style="clip-path:url(#b);fill:#40acb8"/><path d="m15.1 82.4.6-.5 37.4 38.3v1.1z" style="clip-path:url(#b);fill:#40aeba"/><path d="m15.7 81.9.5-.5 36.9 37.7v1.1z" style="clip-path:url(#b);fill:#41afbb"/><path d="m16.2 81.4.5-.5 36.4 37.2v1z" style="clip-path:url(#b);fill:#41b0bc"/><path d="m16.7 80.9.6-.6L53.1 117v1.1z" style="clip-path:url(#b);fill:#42b2bd"/><path d="m17.3 80.3.5-.5 35.3 36.1v1.1z" style="clip-path:url(#b);fill:#43b3bf"/><path d="m17.8 79.8.6-.5 34.7 35.5v1.1z" style="clip-path:url(#b);fill:#43b4c0"/><path d="m18.4 79.3.5-.5 34.2 35v1z" style="clip-path:url(#b);fill:#44b6c1"/><path d="m18.9 78.8.5-.6 33.7 34.5v1.1z" style="clip-path:url(#b);fill:#44b7c3"/><path d="m19.4 78.2.2-.1 33.5 34.3v.3z" style="clip-path:url(#b);fill:#44b7c3"/><path d="m19.6 78.1.1-.2 33.4 34.2v.3z" style="clip-path:url(#b);fill:#45b7c2"/><path d="m19.7 77.9.2-.1 33.2 33.9v.4z" style="clip-path:url(#b);fill:#46b7c1"/><path d="m19.9 77.8.2-.2 33 33.8v.3z" style="clip-path:url(#b);fill:#47b7c1"/><path d="m20.1 77.6.1-.1 32.9 33.6v.3z" style="clip-path:url(#b);fill:#48b7c0"/><path d="m20.2 77.5.2-.2 32.7 33.5v.3z" style="clip-path:url(#b);fill:#48b7bf"/><path d="m20.4 77.3.1-.2 32.6 33.4v.3z" style="clip-path:url(#b);fill:#49b7bf"/><path d="m20.5 77.1.2-.1 32.4 33.2v.3z" style="clip-path:url(#b);fill:#4ab7be"/><path d="m20.7 77 .2-.2 32.2 33v.4z" style="clip-path:url(#b);fill:#4bb7bd"/><path d="m20.9 76.8.1-.1 32.1 32.8v.3z" style="clip-path:url(#b);fill:#4cb7bd"/><path d="m21 76.7.2-.2 31.9 32.7v.3z" style="clip-path:url(#b);fill:#4cb7bc"/><path d="m21.2 76.5.1-.1 31.8 32.5v.3z" style="clip-path:url(#b);fill:#4db7bb"/><path d="m21.3 76.4.2-.2 31.6 32.4v.3z" style="clip-path:url(#b);fill:#4eb7ba"/><path d="m21.5 76.2.1-.1 31.5 32.1v.4z" style="clip-path:url(#b);fill:#4fb7ba"/><path d="m21.6 76.1.2-.2 31.3 32v.3z" style="clip-path:url(#b);fill:#50b6b9"/><path d="m21.8 75.9.2-.1 31.1 31.8v.3z" style="clip-path:url(#b);fill:#50b6b8"/><path d="m22 75.8.1-.2 31 31.7v.3z" style="clip-path:url(#b);fill:#51b6b8"/><path d="m22.1 75.6.2-.2L53.1 107v.3z" style="clip-path:url(#b);fill:#52b6b7"/><path d="m22.3 75.4.1-.1 30.7 31.4v.3z" style="clip-path:url(#b);fill:#53b6b6"/><path d="m22.4 75.3.2-.2 30.5 31.2v.4z" style="clip-path:url(#b);fill:#54b6b6"/><path d="m22.6 75.1.2-.1 30.3 31v.3z" style="clip-path:url(#b);fill:#55b6b5"/><path d="m22.8 75 .1-.2 30.2 30.9v.3z" style="clip-path:url(#b);fill:#56b6b4"/><path d="m22.9 74.8.2-.1 30 30.7v.3z" style="clip-path:url(#b);fill:#56b6b3"/><path d="m23.1 74.7.1-.2 29.9 30.6v.3z" style="clip-path:url(#b);fill:#57b6b3"/><path d="m23.2 74.5.2-.1 29.7 30.3v.4z" style="clip-path:url(#b);fill:#58b6b2"/><path d="m23.4 74.4.2-.2 29.5 30.2v.3z" style="clip-path:url(#b);fill:#59b6b1"/><path d="m23.6 74.2.1-.2 29.4 30.1v.3z" style="clip-path:url(#b);fill:#5ab6b0"/><path d="m23.7 74 .2-.1 29.2 29.9v.3z" style="clip-path:url(#b);fill:#5bb6b0"/><path d="m23.9 73.9.1-.2 29.1 29.8v.3z" style="clip-path:url(#b);fill:#5bb6af"/><path d="m24 73.7.2-.1 28.9 29.6v.3z" style="clip-path:url(#b);fill:#5cb6ae"/><path d="m24.2 73.6.1-.2 28.8 29.4v.4z" style="clip-path:url(#b);fill:#5db6ae"/><path d="m24.3 73.4.2-.1 28.6 29.2v.3z" style="clip-path:url(#b);fill:#5eb6ad"/><path d="m24.5 73.3.2-.2 28.4 29.1v.3z" style="clip-path:url(#b);fill:#5fb6ac"/><path d="m24.7 73.1.1-.1 28.3 28.9v.3z" style="clip-path:url(#b);fill:#5fb6ab"/><path d="m24.8 73 .2-.2 28.1 28.8v.3z" style="clip-path:url(#b);fill:#60b6ab"/><path d="m25 72.8.1-.1 28 28.6v.3z" style="clip-path:url(#b);fill:#61b6aa"/><path d="m25.1 72.7.2-.2 27.8 28.4v.4z" style="clip-path:url(#b);fill:#62b6a9"/><path d="m25.3 72.5.2-.2 27.6 28.3v.3z" style="clip-path:url(#b);fill:#63b5a8"/><path d="m25.5 72.3.1-.1 27.5 28.1v.3z" style="clip-path:url(#b);fill:#63b5a7"/><path d="m25.6 72.2.2-.2 27.3 28v.3z" style="clip-path:url(#b);fill:#64b5a7"/><path d="m25.8 72 .1-.1 27.2 27.8v.3z" style="clip-path:url(#b);fill:#65b5a6"/><path d="m25.9 71.9.2-.2 27 27.6v.4z" style="clip-path:url(#b);fill:#66b5a5"/><path d="m26.1 71.7.2-.1L53.1 99v.3z" style="clip-path:url(#b);fill:#67b5a4"/><path d="m26.3 71.6.1-.2 26.7 27.3v.3z" style="clip-path:url(#b);fill:#67b5a4"/><path d="m26.4 71.4.2-.1 26.5 27.1v.3z" style="clip-path:url(#b);fill:#68b5a3"/><path d="m26.6 71.3.1-.2 26.4 27v.3z" style="clip-path:url(#b);fill:#69b5a2"/><path d="m26.7 71.1.2-.2 26.2 26.9v.3z" style="clip-path:url(#b);fill:#6ab5a1"/><path d="m26.9 70.9.1-.1 26.1 26.6v.4z" style="clip-path:url(#b);fill:#6bb5a1"/><path d="m27 70.8.2-.2 25.9 26.5v.3z" style="clip-path:url(#b);fill:#6cb5a0"/><path d="m27.2 70.6.2-.1 25.7 26.3v.3z" style="clip-path:url(#b);fill:#6cb59f"/><path d="m27.4 70.5.1-.2 25.6 26.2v.3z" style="clip-path:url(#b);fill:#6db59e"/><path d="m27.5 70.3.2-.1 25.4 26v.3z" style="clip-path:url(#b);fill:#6eb59d"/><path d="m27.7 70.2.1-.2 25.3 25.9v.3z" style="clip-path:url(#b);fill:#6fb59d"/><path d="m27.8 70 .2-.1 25.1 25.6v.4z" style="clip-path:url(#b);fill:#70b59c"/><path d="m28 69.9.2-.2 24.9 25.5v.3z" style="clip-path:url(#b);fill:#71b59b"/><path d="m28.2 69.7.1-.1 24.8 25.3v.3z" style="clip-path:url(#b);fill:#71b59a"/><path d="m28.3 69.6.2-.2 24.6 25.2v.3z" style="clip-path:url(#b);fill:#72b599"/><path d="m28.5 69.4.1-.2 24.5 25.1v.3z" style="clip-path:url(#b);fill:#73b599"/><path d="m28.6 69.2.2-.1 24.3 24.8v.4z" style="clip-path:url(#b);fill:#74b598"/><path d="m28.8 69.1.2-.2 24.1 24.7v.3z" style="clip-path:url(#b);fill:#75b497"/><path d="m29 68.9.1-.1 24 24.5v.3z" style="clip-path:url(#b);fill:#75b496"/><path d="m29.1 68.8.2-.2L53.1 93v.3z" style="clip-path:url(#b);fill:#76b495"/><path d="m29.3 68.6.1-.1 23.7 24.2v.3z" style="clip-path:url(#b);fill:#77b495"/><path d="m29.4 68.5.2-.2 23.5 24.1v.3z" style="clip-path:url(#b);fill:#78b494"/><path d="m29.6 68.3.1-.1L53.1 92v.4z" style="clip-path:url(#b);fill:#79b493"/><path d="m29.7 68.2.2-.2 23.2 23.7v.3z" style="clip-path:url(#b);fill:#79b492"/><path d="m29.9 68 .2-.2 23 23.6v.3z" style="clip-path:url(#b);fill:#7ab491"/><path d="m30.1 67.8.1-.1 22.9 23.4v.3z" style="clip-path:url(#b);fill:#7bb491"/><path d="m30.2 67.7.2-.2 22.7 23.3v.3z" style="clip-path:url(#b);fill:#7cb490"/><path d="m30.4 67.5.1-.1 22.6 23.1v.3z" style="clip-path:url(#b);fill:#7db48f"/><path d="m30.5 67.4.2-.2 22.4 22.9v.4z" style="clip-path:url(#b);fill:#7db48e"/><path d="m30.7 67.2.2-.1 22.2 22.7v.3z" style="clip-path:url(#b);fill:#7eb48d"/><path d="m30.9 67.1.1-.2 22.1 22.6v.3z" style="clip-path:url(#b);fill:#7fb48c"/><path d="m31 66.9.2-.1 21.9 22.4v.3z" style="clip-path:url(#b);fill:#80b48c"/><path d="M31.2 66.8v-.1h.2l21.7 22.2v.3z" style="clip-path:url(#b);fill:#81b48b"/><path d="m31.7 66.7 21.4 21.8v.4L31.4 66.7z" style="clip-path:url(#b);fill:#82b48a"/><path d="m32.1 66.7 21 21.5v.3L31.7 66.7z" style="clip-path:url(#b);fill:#82b489"/><path d="m32.4 66.7 20.7 21.2v.3l-21-21.5z" style="clip-path:url(#b);fill:#83b388"/><path d="m32.7 66.7 20.4 20.9v.3L32.4 66.7z" style="clip-path:url(#b);fill:#84b388"/><path d="m33 66.7 20.1 20.6v.3L32.7 66.7z" style="clip-path:url(#b);fill:#85b387"/><path d="M33.3 66.7 53.1 87v.3L33 66.7z" style="clip-path:url(#b);fill:#86b386"/><path d="m33.6 66.7 19.5 19.9v.4L33.3 66.7z" style="clip-path:url(#b);fill:#86b385"/><path d="m33.9 66.7 19.2 19.6v.3L33.6 66.7z" style="clip-path:url(#b);fill:#87b384"/><path d="M34.2 66.7 53.1 86v.3L33.9 66.7z" style="clip-path:url(#b);fill:#88b383"/><path d="m34.5 66.7 18.6 19v.3L34.2 66.7z" style="clip-path:url(#b);fill:#89b382"/><path d="m34.8 66.7 18.3 18.7v.3l-18.6-19z" style="clip-path:url(#b);fill:#8ab382"/><path d="M35.2 66.7 53.1 85v.4L34.8 66.7z" style="clip-path:url(#b);fill:#8bb381"/><path d="m35.5 66.7 17.6 18v.3L35.2 66.7z" style="clip-path:url(#b);fill:#8bb380"/><path d="m35.8 66.7 17.3 17.7v.3l-17.6-18z" style="clip-path:url(#b);fill:#8cb37f"/><path d="m36.1 66.7 17 17.4v.3L35.8 66.7z" style="clip-path:url(#b);fill:#8db37e"/><path d="m36.4 66.7 16.7 17.1v.3l-17-17.4z" style="clip-path:url(#b);fill:#8eb37d"/><path d="m36.7 66.7 16.4 16.8v.3L36.4 66.7z" style="clip-path:url(#b);fill:#8fb37c"/><path d="m37 66.7 16.1 16.4v.4L36.7 66.7z" style="clip-path:url(#b);fill:#8fb37c"/><path d="m37.3 66.7 15.8 16.1v.3L37 66.7z" style="clip-path:url(#b);fill:#90b27b"/><path d="m37.6 66.7 15.5 15.8v.3L37.3 66.7z" style="clip-path:url(#b);fill:#91b27a"/><path d="m38 66.7 15.1 15.5v.3L37.6 66.7z" style="clip-path:url(#b);fill:#92b279"/><path d="m38.3 66.7 14.8 15.2v.3L38 66.7z" style="clip-path:url(#b);fill:#93b278"/><path d="m38.6 66.7 14.5 14.9v.3L38.3 66.7z" style="clip-path:url(#b);fill:#93b277"/><path d="m38.9 66.7 14.2 14.5v.4L38.6 66.7z" style="clip-path:url(#b);fill:#94b276"/><path d="m39.2 66.7 13.9 14.2v.3L38.9 66.7z" style="clip-path:url(#b);fill:#95b276"/><path d="m39.5 66.7 13.6 13.9v.3L39.2 66.7z" style="clip-path:url(#b);fill:#96b275"/><path d="m39.8 66.7 13.3 13.6v.3L39.5 66.7z" style="clip-path:url(#b);fill:#97b274"/><path d="m40.1 66.7 13 13.3v.3L39.8 66.7z" style="clip-path:url(#b);fill:#97b273"/><path d="m40.4 66.7 12.7 12.9v.4l-13-13.3z" style="clip-path:url(#b);fill:#98b272"/><path d="m40.7 66.7 12.4 12.6v.3L40.4 66.7z" style="clip-path:url(#b);fill:#99b271"/><path d="m41.1 66.7 12 12.3v.3L40.7 66.7z" style="clip-path:url(#b);fill:#9ab270"/><path d="m41.4 66.7 11.7 12v.3l-12-12.3z" style="clip-path:url(#b);fill:#9bb26f"/><path d="m41.7 66.7 11.4 11.7v.3l-11.7-12z" style="clip-path:url(#b);fill:#9cb16f"/><path d="m42 66.7 11.1 11.4v.3L41.7 66.7z" style="clip-path:url(#b);fill:#9cb16e"/><path d="m42.3 66.7 10.8 11v.4L42 66.7z" style="clip-path:url(#b);fill:#9db16d"/><path d="m42.6 66.7 10.5 10.7v.3l-10.8-11z" style="clip-path:url(#b);fill:#9eb16c"/><path d="m42.9 66.7 10.2 10.4v.3L42.6 66.7z" style="clip-path:url(#b);fill:#9fb16b"/><path d="m43.2 66.7 9.9 10.1v.3L42.9 66.7z" style="clip-path:url(#b);fill:#a0b16a"/><path d="m43.5 66.7 9.6 9.8v.3l-9.9-10.1z" style="clip-path:url(#b);fill:#a0b169"/><path d="m43.8 66.7 9.3 9.5v.3l-9.6-9.8z" style="clip-path:url(#b);fill:#a1b168"/><path d="m44.2 66.7 8.9 9.1v.4l-9.3-9.5z" style="clip-path:url(#b);fill:#a2b168"/><path d="m44.5 66.7 8.6 8.8v.3l-8.9-9.1z" style="clip-path:url(#b);fill:#a3b167"/><path d="m44.8 66.7 8.3 8.5v.3l-8.6-8.8z" style="clip-path:url(#b);fill:#a4b166"/><path d="m45.1 66.7 8 8.2v.3l-8.3-8.5z" style="clip-path:url(#b);fill:#a4b165"/><path d="m45.4 66.7 7.7 7.9v.3l-8-8.2z" style="clip-path:url(#b);fill:#a5b164"/><path d="m45.7 66.7 7.4 7.5v.4l-7.7-7.9z" style="clip-path:url(#b);fill:#a6b163"/><path d="m46 66.7 7.1 7.2v.3l-7.4-7.5z" style="clip-path:url(#b);fill:#a7b062"/><path d="m46.3 66.7 6.8 6.9v.3L46 66.7z" style="clip-path:url(#b);fill:#a8b061"/><path d="m46.6 66.7 6.5 6.6v.3l-6.8-6.9z" style="clip-path:url(#b);fill:#a8b060"/><path d="m46.9 66.7 6.2 6.3v.3l-6.5-6.6z" style="clip-path:url(#b);fill:#a9b060"/><path d="m47.3 66.7 5.8 6v.3l-6.2-6.3z" style="clip-path:url(#b);fill:#aab05f"/><path d="m47.6 66.7 5.5 5.6v.4l-5.8-6z" style="clip-path:url(#b);fill:#abb05e"/><path d="m47.9 66.7 5.2 5.3v.3l-5.5-5.6z" style="clip-path:url(#b);fill:#acb05d"/><path d="m48.2 66.7 4.9 5v.3l-5.2-5.3z" style="clip-path:url(#b);fill:#acb05c"/><path d="m48.5 66.7 4.6 4.7v.3l-4.9-5z" style="clip-path:url(#b);fill:#adb05b"/><path d="m48.8 66.7 4.3 4.4v.3l-4.6-4.7z" style="clip-path:url(#b);fill:#aeb05a"/><path d="m49.1 66.7 4 4.1v.3l-4.3-4.4z" style="clip-path:url(#b);fill:#afb059"/><path d="m49.4 66.7 3.7 3.7v.4l-4-4.1z" style="clip-path:url(#b);fill:#b0b058"/><path d="m49.7 66.7 3.4 3.4v.3l-3.7-3.7z" style="clip-path:url(#b);fill:#b1b057"/><path d="m50 66.7 3.1 3.1v.3l-3.4-3.4z" style="clip-path:url(#b);fill:#b1af57"/><path d="m50.4 66.7 2.7 2.8v.3L50 66.7z" style="clip-path:url(#b);fill:#b2af56"/><path d="m50.7 66.7 2.4 2.5v.3l-2.7-2.8z" style="clip-path:url(#b);fill:#b3af55"/><path d="m51 66.7 2.1 2.1v.4l-2.4-2.5z" style="clip-path:url(#b);fill:#b4af54"/><path d="m51.3 66.7 1.8 1.8v.3L51 66.7z" style="clip-path:url(#b);fill:#b5af53"/><path d="m51.6 66.7 1.5 1.5v.3l-1.8-1.8z" style="clip-path:url(#b);fill:#b5af52"/><path d="m51.9 66.7 1.2 1.2v.3l-1.5-1.5z" style="clip-path:url(#b);fill:#b6af51"/><path d="m52.2 66.7.9.9v.3l-1.2-1.2z" style="clip-path:url(#b);fill:#b7af50"/><path d="m52.5 66.7.6.6v.3l-.9-.9z" style="clip-path:url(#b);fill:#b8af4f"/><path d="m52.8 66.7.3.2v.4l-.6-.6z" style="clip-path:url(#b);fill:#b9af4e"/><path d="m53.1 66.9-.3-.2h.3z" style="clip-path:url(#b);fill:#baaf4d"/><path d="m5.9 157.9 31.9 32.6H5.9z" style="clip-path:url(#b);fill:#195667"/><path d="m5.9 157.7.5-.4 32.4 33.2h-1L5.9 157.9z" style="clip-path:url(#b);fill:#195667"/><path d="m6.4 157.3.5-.6 33 33.8h-1.1z" style="clip-path:url(#b);fill:#1a5768"/><path d="m6.9 156.7.5-.5 33.5 34.3h-1z" style="clip-path:url(#b);fill:#1a5869"/><path d="m7.4 156.2.6-.5 34 34.8h-1.1z" style="clip-path:url(#b);fill:#1b5969"/><path d="m8 155.7.5-.5L43 190.5h-1z" style="clip-path:url(#b);fill:#1b5a6a"/><path d="m8.5 155.2.5-.6 35 35.9h-1z" style="clip-path:url(#b);fill:#1b5b6b"/><path d="m9 154.6.6-.5 35.5 36.4H44z" style="clip-path:url(#b);fill:#1c5c6c"/><path d="m9.6 154.1.5-.5 36 36.9h-1z" style="clip-path:url(#b);fill:#1c5c6d"/><path d="m10.1 153.6.5-.5 36.6 37.4h-1.1z" style="clip-path:url(#b);fill:#1d5d6e"/><path d="m10.6 153.1.6-.6 37 38h-1z" style="clip-path:url(#b);fill:#1d5e6f"/><path d="m11.2 152.5.5-.5 37.6 38.5h-1.1z" style="clip-path:url(#b);fill:#1e5f70"/><path d="m11.7 152 .6-.5 38 39h-1z" style="clip-path:url(#b);fill:#1e6071"/><path d="m12.3 151.5.5-.5 38.6 39.5h-1.1z" style="clip-path:url(#b);fill:#1f6171"/><path d="m12.8 151 .5-.6 38.2 39.1v1h-.1z" style="clip-path:url(#b);fill:#1f6272"/><path d="m13.3 150.4.6-.5 37.6 38.5v1.1z" style="clip-path:url(#b);fill:#206373"/><path d="m13.9 149.9.5-.5 37.1 38v1z" style="clip-path:url(#b);fill:#206474"/><path d="m14.4 149.4.5-.5 36.6 37.4v1.1z" style="clip-path:url(#b);fill:#216575"/><path d="m14.9 148.9.6-.6 36 36.9v1.1z" style="clip-path:url(#b);fill:#216676"/><path d="m15.5 148.3.5-.5 35.5 36.3v1.1z" style="clip-path:url(#b);fill:#216777"/><path d="m16 147.8.6-.5 34.9 35.8v1z" style="clip-path:url(#b);fill:#226878"/><path d="m16.6 147.3.5-.5L51.5 182v1.1z" style="clip-path:url(#b);fill:#226979"/><path d="m17.1 146.8.5-.6 33.9 34.7v1.1z" style="clip-path:url(#b);fill:#236a7a"/><path d="m17.6 146.2.6-.5 33.3 34.2v1z" style="clip-path:url(#b);fill:#236b7b"/><path d="m18.2 145.7.5-.5 32.8 33.6v1.1z" style="clip-path:url(#b);fill:#246c7c"/><path d="m18.7 145.2.5-.5 32.3 33v1.1z" style="clip-path:url(#b);fill:#246d7d"/><path d="m19.2 144.7.6-.5 31.7 32.4v1.1z" style="clip-path:url(#b);fill:#256e7d"/><path d="m19.8 144.2.5-.6 31.2 32v1z" style="clip-path:url(#b);fill:#256f7e"/><path d="m20.3 143.6.6-.5 30.6 31.4v1.1z" style="clip-path:url(#b);fill:#26707f"/><path d="m20.9 143.1.5-.5 30.1 30.8v1.1z" style="clip-path:url(#b);fill:#267180"/><path d="m21.4 142.6.5-.5 29.6 30.2v1.1z" style="clip-path:url(#b);fill:#277281"/><path d="m21.9 142.1.6-.6 29 29.8v1z" style="clip-path:url(#b);fill:#277382"/><path d="m22.5 141.5.5-.5 28.5 29.2v1.1z" style="clip-path:url(#b);fill:#277483"/><path d="m23 141 .5-.5 28 28.6v1.1z" style="clip-path:url(#b);fill:#287584"/><path d="m23.5 140.5.6-.5 27.4 28v1.1z" style="clip-path:url(#b);fill:#287685"/><path d="m24.1 140 .5-.6L51.5 167v1z" style="clip-path:url(#b);fill:#297886"/><path d="m24.6 139.4.6-.5 26.3 27v1.1z" style="clip-path:url(#b);fill:#297987"/><path d="m25.2 138.9.5-.5 25.8 26.4v1.1z" style="clip-path:url(#b);fill:#2a7a88"/><path d="m25.7 138.4.5-.5 25.3 25.8v1.1z" style="clip-path:url(#b);fill:#2a7b89"/><path d="m26.2 137.9.6-.6 24.7 25.4v1z" style="clip-path:url(#b);fill:#2b7c8a"/><path d="m26.8 137.3.5-.5 24.2 24.8v1.1z" style="clip-path:url(#b);fill:#2b7d8c"/><path d="m27.3 136.8.5-.5 23.7 24.2v1.1z" style="clip-path:url(#b);fill:#2c7e8d"/><path d="m27.8 136.3.6-.5 23.1 23.6v1.1z" style="clip-path:url(#b);fill:#2c7f8e"/><path d="m28.4 135.8.5-.6 22.6 23.2v1z" style="clip-path:url(#b);fill:#2c808f"/><path d="m28.9 135.2.6-.5 22 22.6v1.1z" style="clip-path:url(#b);fill:#2d8190"/><path d="m29.5 134.7.1-.2h.7l21.2 21.7v1.1z" style="clip-path:url(#b);fill:#2d8391"/><path d="m31.4 134.5 20.1 20.6v1.1l-21.2-21.7z" style="clip-path:url(#b);fill:#2e8492"/><path d="m32.4 134.5 19.1 19.6v1l-20.1-20.6z" style="clip-path:url(#b);fill:#2e8593"/><path d="m33.5 134.5 18 18.5v1.1l-19.1-19.6z" style="clip-path:url(#b);fill:#2f8694"/><path d="m34.5 134.5 17 17.4v1.1l-18-18.5z" style="clip-path:url(#b);fill:#2f8795"/><path d="m35.6 134.5 15.9 16.3v1.1l-17-17.4z" style="clip-path:url(#b);fill:#308896"/><path d="m36.6 134.5 14.9 15.3v1l-15.9-16.3z" style="clip-path:url(#b);fill:#308997"/><path d="m37.7 134.5 13.8 14.2v1.1l-14.9-15.3z" style="clip-path:url(#b);fill:#318b98"/><path d="m38.7 134.5 12.8 13.1v1.1l-13.8-14.2z" style="clip-path:url(#b);fill:#318c99"/><path d="m39.8 134.5 11.7 12v1.1l-12.8-13.1z" style="clip-path:url(#b);fill:#328d9b"/><path d="m40.8 134.5 10.7 11v1l-11.7-12z" style="clip-path:url(#b);fill:#328e9c"/><path d="m41.9 134.5 9.6 9.9v1.1l-10.7-11z" style="clip-path:url(#b);fill:#338f9d"/><path d="m42.9 134.5 8.6 8.8v1.1l-9.6-9.9z" style="clip-path:url(#b);fill:#33909e"/><path d="m43.9 134.5 7.6 7.7v1.1l-8.6-8.8z" style="clip-path:url(#b);fill:#34929f"/><path d="m45 134.5 6.5 6.7v1l-7.6-7.7z" style="clip-path:url(#b);fill:#3493a0"/><path d="m46 134.5 5.5 5.6v1.1l-6.5-6.7z" style="clip-path:url(#b);fill:#3594a1"/><path d="m47.1 134.5 4.4 4.5v1.1l-5.5-5.6z" style="clip-path:url(#b);fill:#3595a2"/><path d="m48.1 134.5 3.4 3.4v1.1l-4.4-4.5z" style="clip-path:url(#b);fill:#3697a4"/><path d="m49.2 134.5 2.3 2.4v1l-3.4-3.4z" style="clip-path:url(#b);fill:#3798a5"/><path d="m50.2 134.5 1.3 1.3v1.1l-2.3-2.4z" style="clip-path:url(#b);fill:#3799a6"/><path d="m51.3 134.5.2.2v1.1l-1.3-1.3z" style="clip-path:url(#b);fill:#389aa7"/><path d="m51.5 134.7-.2-.2h.2z" style="clip-path:url(#b);fill:#389ba8"/><path d="m0 151.8 4.7 4.8H0z" style="clip-path:url(#b);fill:#195667"/><path d="m0 150.7 5.7 5.9h-1L0 151.8z" style="clip-path:url(#b);fill:#195667"/><path d="m0 149.7 6.8 6.9H5.7L0 150.7z" style="clip-path:url(#b);fill:#1a5768"/><path d="m0 148.6 7.8 8h-1L0 149.7z" style="clip-path:url(#b);fill:#1a5869"/><path d="m0 147.5 8.9 9.1H7.8l-7.8-8z" style="clip-path:url(#b);fill:#1b5969"/><path d="m0 146.4 9.9 10.2h-1L0 147.5z" style="clip-path:url(#b);fill:#1b5a6a"/><path d="m0 145.4 11 11.2H9.9L0 146.4z" style="clip-path:url(#b);fill:#1b5b6b"/><path d="m0 144.3 12 12.3h-1L0 145.4z" style="clip-path:url(#b);fill:#1c5c6c"/><path d="m0 143.2 13.1 13.4H12L0 144.3z" style="clip-path:url(#b);fill:#1c5c6d"/><path d="m0 142.1 14.1 14.5h-1L0 143.2z" style="clip-path:url(#b);fill:#1d5d6e"/><path d="m0 141.1 15.1 15.5h-1L0 142.1z" style="clip-path:url(#b);fill:#1d5e6f"/><path d="m0 140 16.2 16.6h-1.1L0 141.1z" style="clip-path:url(#b);fill:#1e5f70"/><path d="m0 138.9 17.2 17.7h-1L0 140z" style="clip-path:url(#b);fill:#1e6071"/><path d="m0 137.8 18.3 18.8h-1.1L0 138.9z" style="clip-path:url(#b);fill:#1f6171"/><path d="m0 136.8 19.3 19.8h-1L0 137.8z" style="clip-path:url(#b);fill:#1f6272"/><path d="m0 135.7 20.4 20.9h-1.1L0 136.8z" style="clip-path:url(#b);fill:#206373"/><path d="m0 134.6 21.4 22h-1L0 135.7z" style="clip-path:url(#b);fill:#206474"/><path d="m0 133.5 22.4 23-.1.1h-.9L0 134.6z" style="clip-path:url(#b);fill:#216575"/><path d="M0 132.5 22.9 156l-.5.5-22.4-23z" style="clip-path:url(#b);fill:#216676"/><path d="m0 131.4 23.5 24.1-.6.5L0 132.5z" style="clip-path:url(#b);fill:#216777"/><path d="m0 130.3 24 24.6-.5.6L0 131.4z" style="clip-path:url(#b);fill:#226878"/><path d="m0 129.2 24.6 25.2-.6.5-24-24.6z" style="clip-path:url(#b);fill:#226979"/><path d="m0 128.2 25.1 25.7-.5.5L0 129.2z" style="clip-path:url(#b);fill:#236a7a"/><path d="m0 127.1 25.6 26.3-.5.5L0 128.2z" style="clip-path:url(#b);fill:#236b7b"/><path d="m0 126 26.2 26.8-.6.6L0 127.1z" style="clip-path:url(#b);fill:#246c7c"/><path d="m0 124.9 26.7 27.4-.5.5L0 126z" style="clip-path:url(#b);fill:#246d7d"/><path d="m0 123.9 27.2 27.9-.5.5L0 124.9z" style="clip-path:url(#b);fill:#256e7d"/><path d="m0 122.8 27.8 28.5-.6.5L0 123.9z" style="clip-path:url(#b);fill:#256f7e"/><path d="m0 121.7 28.3 29.1-.5.5L0 122.8z" style="clip-path:url(#b);fill:#26707f"/><path d="m0 120.6 28.9 29.6-.6.6L0 121.7z" style="clip-path:url(#b);fill:#267180"/><path d="m0 119.6 29.4 30.1-.5.5L0 120.6z" style="clip-path:url(#b);fill:#277281"/><path d="m0 118.5 29.9 30.7-.5.5L0 119.6z" style="clip-path:url(#b);fill:#277382"/><path d="m0 117.4 30.5 31.3-.6.5L0 118.5z" style="clip-path:url(#b);fill:#277483"/><path d="m0 116.3 31 31.8-.5.6L0 117.4z" style="clip-path:url(#b);fill:#287584"/><path d="m0 115.3 31.5 32.3-.5.5-31-31.8z" style="clip-path:url(#b);fill:#287685"/><path d="m0 114.2 32.1 32.9-.6.5L0 115.3z" style="clip-path:url(#b);fill:#297886"/><path d="m0 113.1 32.6 33.5-.5.5L0 114.2z" style="clip-path:url(#b);fill:#297987"/><path d="M0 112.1 33.2 146l-.6.6L0 113.1z" style="clip-path:url(#b);fill:#2a7a88"/><path d="m0 111 33.7 34.5-.5.5L0 112.1z" style="clip-path:url(#b);fill:#2a7b89"/><path d="M0 109.9 34.2 145l-.5.5L0 111z" style="clip-path:url(#b);fill:#2b7c8a"/><path d="m0 108.8 34.8 35.7-.6.5L0 109.9z" style="clip-path:url(#b);fill:#2b7d8c"/><path d="m0 107.8 35.3 36.1-.5.6L0 108.8z" style="clip-path:url(#b);fill:#2c7e8d"/><path d="m0 106.7 35.8 36.7-.5.5L0 107.8z" style="clip-path:url(#b);fill:#2c7f8e"/><path d="m0 105.6 36.4 37.3-.6.5L0 106.7z" style="clip-path:url(#b);fill:#2c808f"/><path d="m0 104.5 36.9 37.9-.5.5L0 105.6z" style="clip-path:url(#b);fill:#2d8190"/><path d="m0 103.5 37.5 38.3-.6.6L0 104.5z" style="clip-path:url(#b);fill:#2d8391"/><path d="m0 102.4 38 38.9-.5.5L0 103.5z" style="clip-path:url(#b);fill:#2e8492"/><path d="m0 101.3 38.5 39.5-.5.5-38-38.9z" style="clip-path:url(#b);fill:#2e8593"/><path d="m.4 100.6 38.7 39.7-.6.5L0 101.3v-.7z" style="clip-path:url(#b);fill:#2f8694"/><path d="m1.4 100.6 38.2 39.1-.5.6L.4 100.6z" style="clip-path:url(#b);fill:#2f8795"/><path d="m2.5 100.6 37.6 38.6-.5.5-38.2-39.1z" style="clip-path:url(#b);fill:#308896"/><path d="m3.5 100.6 37.2 38.1-.6.5-37.6-38.6z" style="clip-path:url(#b);fill:#308997"/><path d="m4.6 100.6 36.6 37.6-.5.5-37.2-38.1z" style="clip-path:url(#b);fill:#318b98"/><path d="m5.6 100.6 36.2 37-.6.6-36.6-37.6z" style="clip-path:url(#b);fill:#318c99"/><path d="m6.7 100.6 35.6 36.5-.5.5-36.2-37z" style="clip-path:url(#b);fill:#328d9b"/><path d="m7.7 100.6 35.1 36-.5.5-35.6-36.5z" style="clip-path:url(#b);fill:#328e9c"/><path d="m8.8 100.6 34.6 35.5-.6.5-35.1-36z" style="clip-path:url(#b);fill:#338f9d"/><path d="m9.8 100.6 34.1 34.9-.5.6-34.6-35.5z" style="clip-path:url(#b);fill:#33909e"/><path d="M10.9 100.6 44.4 135l-.5.5-34.1-34.9z" style="clip-path:url(#b);fill:#34929f"/><path d="M11.9 100.6 45 134.5l-.6.5-33.5-34.4z" style="clip-path:url(#b);fill:#3493a0"/><path d="M13 100.6 45.5 134l-.5.5-33.1-33.9z" style="clip-path:url(#b);fill:#3594a1"/><path d="M14 100.6 45.6 133v.9l-.1.1L13 100.6z" style="clip-path:url(#b);fill:#3595a2"/><path d="m15 100.6 30.6 31.3v1.1L14 100.6z" style="clip-path:url(#b);fill:#3697a4"/><path d="m16.1 100.6 29.5 30.2v1.1L15 100.6z" style="clip-path:url(#b);fill:#3798a5"/><path d="m17.1 100.6 28.5 29.1v1.1l-29.5-30.2z" style="clip-path:url(#b);fill:#3799a6"/><path d="m18.2 100.6 27.4 28.1v1l-28.5-29.1z" style="clip-path:url(#b);fill:#389aa7"/><path d="m19.2 100.6 26.4 27v1.1l-27.4-28.1z" style="clip-path:url(#b);fill:#389ba8"/><path d="m20.3 100.6 25.3 25.9v1.1l-26.4-27z" style="clip-path:url(#b);fill:#399daa"/><path d="m21.3 100.6 24.3 24.8v1.1l-25.3-25.9z" style="clip-path:url(#b);fill:#399eab"/><path d="m22.4 100.6 23.2 23.8v1l-24.3-24.8z" style="clip-path:url(#b);fill:#3a9fac"/><path d="m23.4 100.6 22.2 22.7v1.1l-23.2-23.8z" style="clip-path:url(#b);fill:#3ba1ad"/><path d="m24.5 100.6 21.1 21.6v1.1l-22.2-22.7z" style="clip-path:url(#b);fill:#3ba2ae"/><path d="m25.5 100.6 20.1 20.5v1.1l-21.1-21.6z" style="clip-path:url(#b);fill:#3ca3b0"/><path d="m26.6 100.6 19 19.5v1l-20.1-20.5z" style="clip-path:url(#b);fill:#3ca4b1"/><path d="m27.6 100.6 18 18.4v1.1l-19-19.5z" style="clip-path:url(#b);fill:#3da6b2"/><path d="m28.7 100.6 16.9 17.3v1.1l-18-18.4z" style="clip-path:url(#b);fill:#3da7b3"/><path d="m29.7 100.6 15.9 16.2v1.1l-16.9-17.3z" style="clip-path:url(#b);fill:#3ea8b5"/><path d="m30.8 100.6 14.8 15.2v1l-15.9-16.2z" style="clip-path:url(#b);fill:#3faab6"/><path d="m31.8 100.6 13.8 14.1v1.1l-14.8-15.2z" style="clip-path:url(#b);fill:#3fabb7"/><path d="m32.9 100.6 12.7 13v1.1l-13.8-14.1z" style="clip-path:url(#b);fill:#40acb8"/><path d="m33.9 100.6 11.7 11.9v1.1l-12.7-13z" style="clip-path:url(#b);fill:#40aeba"/><path d="m35 100.6 10.6 10.9v1l-11.7-11.9z" style="clip-path:url(#b);fill:#41afbb"/><path d="m36 100.6 9.6 9.8v1.1L35 100.6z" style="clip-path:url(#b);fill:#41b0bc"/><path d="m37.1 100.6 8.5 8.7v1.1l-9.6-9.8z" style="clip-path:url(#b);fill:#42b2bd"/><path d="m38.1 100.6 7.5 7.6v1.1l-8.5-8.7z" style="clip-path:url(#b);fill:#43b3bf"/><path d="m39.2 100.6 6.4 6.6v1l-7.5-7.6z" style="clip-path:url(#b);fill:#43b4c0"/><path d="m40.2 100.6 5.4 5.5v1.1l-6.4-6.6z" style="clip-path:url(#b);fill:#44b6c1"/><path d="m41.3 100.6 4.3 4.4v1.1l-5.4-5.5z" style="clip-path:url(#b);fill:#44b7c3"/><path d="m41.6 100.6 4 4.1v.3l-4.3-4.4z" style="clip-path:url(#b);fill:#44b7c3"/><path d="m41.9 100.6 3.7 3.8v.3l-4-4.1z" style="clip-path:url(#b);fill:#45b7c2"/><path d="m42.2 100.6 3.4 3.5v.3l-3.7-3.8z" style="clip-path:url(#b);fill:#46b7c1"/><path d="m42.5 100.6 3.1 3.1v.4l-3.4-3.5z" style="clip-path:url(#b);fill:#47b7c1"/><path d="m42.8 100.6 2.8 2.8v.3l-3.1-3.1z" style="clip-path:url(#b);fill:#48b7c0"/><path d="m43.1 100.6 2.5 2.5v.3l-2.8-2.8z" style="clip-path:url(#b);fill:#48b7bf"/><path d="m43.4 100.6 2.2 2.2v.3l-2.5-2.5z" style="clip-path:url(#b);fill:#49b7bf"/><path d="m43.8 100.6 1.8 1.9v.3l-2.2-2.2z" style="clip-path:url(#b);fill:#4ab7be"/><path d="m44.1 100.6 1.5 1.6v.3l-1.8-1.9z" style="clip-path:url(#b);fill:#4bb7bd"/><path d="m44.4 100.6 1.2 1.2v.4l-1.5-1.6z" style="clip-path:url(#b);fill:#4cb7bd"/><path d="m44.7 100.6.9.9v.3l-1.2-1.2z" style="clip-path:url(#b);fill:#4cb7bc"/><path d="m45 100.6.6.6v.3l-.9-.9z" style="clip-path:url(#b);fill:#4db7bb"/><path d="m45.3 100.6.3.3v.3l-.6-.6z" style="clip-path:url(#b);fill:#4eb7ba"/><path d="m45.6 100.9-.3-.3h.3z" style="clip-path:url(#b);fill:#4fb7ba"/><path d="m65.2 88.9.1.1h-.1z" style="clip-path:url(#b);fill:#a0b169"/><path d="m65.2 88.6.4.4h-.3l-.1-.1z" style="clip-path:url(#b);fill:#a1b168"/><path d="m65.2 88.3.7.7h-.3l-.4-.4z" style="clip-path:url(#b);fill:#a2b168"/><path d="m65.2 88 1 1h-.3l-.7-.7z" style="clip-path:url(#b);fill:#a3b167"/><path d="m65.2 87.7 1.3 1.3h-.3l-1-1z" style="clip-path:url(#b);fill:#a4b166"/><path d="m65.2 87.3 1.6 1.7h-.3l-1.3-1.3z" style="clip-path:url(#b);fill:#a4b165"/><path d="m65.2 87 1.9 2h-.3l-1.6-1.7z" style="clip-path:url(#b);fill:#a5b164"/><path d="m65.2 86.7 2.2 2.3h-.3l-1.9-2z" style="clip-path:url(#b);fill:#a6b163"/><path d="m65.2 86.4 2.5 2.6h-.3l-2.2-2.3z" style="clip-path:url(#b);fill:#a7b062"/><path d="m65.2 86.1 2.9 2.9h-.4l-2.5-2.6z" style="clip-path:url(#b);fill:#a8b061"/><path d="m65.2 85.7 3.2 3.3h-.3l-2.9-2.9z" style="clip-path:url(#b);fill:#a8b060"/><path d="m65.2 85.4 3.5 3.6h-.3l-3.2-3.3z" style="clip-path:url(#b);fill:#a9b060"/><path d="M65.2 85.1 69 89h-.3l-3.5-3.6z" style="clip-path:url(#b);fill:#aab05f"/><path d="m65.2 84.8 4.1 4.2H69l-3.8-3.9z" style="clip-path:url(#b);fill:#abb05e"/><path d="m65.2 84.5 4.4 4.5h-.3l-4.1-4.2z" style="clip-path:url(#b);fill:#acb05d"/><path d="m65.2 84.2 4.7 4.8h-.3l-4.4-4.5z" style="clip-path:url(#b);fill:#acb05c"/><path d="m65.2 83.8 5 5.2h-.3l-4.7-4.8z" style="clip-path:url(#b);fill:#adb05b"/><path d="m65.2 83.5 5.3 5.5h-.3l-5-5.2z" style="clip-path:url(#b);fill:#aeb05a"/><path d="m65.2 83.2 5.7 5.8h-.4l-5.3-5.5z" style="clip-path:url(#b);fill:#afb059"/><path d="m65.2 82.9 6 6.1h-.3l-5.7-5.8z" style="clip-path:url(#b);fill:#b0b058"/><path d="m65.2 82.6 6.3 6.4h-.3l-6-6.1z" style="clip-path:url(#b);fill:#b1b057"/><path d="m65.2 82.3 6.6 6.7h-.3l-6.3-6.4z" style="clip-path:url(#b);fill:#b1af57"/><path d="m65.2 81.9 6.9 7.1h-.3l-6.6-6.7z" style="clip-path:url(#b);fill:#b2af56"/><path d="m65.2 81.6 7.2 7.4h-.3l-6.9-7.1z" style="clip-path:url(#b);fill:#b3af55"/><path d="m65.2 81.3 7.5 7.7h-.3l-7.2-7.4z" style="clip-path:url(#b);fill:#b4af54"/><path d="m65.2 81 7.8 8h-.3l-7.5-7.7z" style="clip-path:url(#b);fill:#b5af53"/><path d="m65.2 80.7 8.1 8.3H73l-7.8-8z" style="clip-path:url(#b);fill:#b5af52"/><path d="m65.2 80.3 8.4 8.7h-.3l-8.1-8.3z" style="clip-path:url(#b);fill:#b6af51"/><path d="m65.2 80 8.8 9h-.4l-8.4-8.7z" style="clip-path:url(#b);fill:#b7af50"/><path d="m65.2 79.7 9.1 9.3H74l-8.8-9z" style="clip-path:url(#b);fill:#b8af4f"/><path d="m65.2 79.4 9.4 9.6h-.3l-9.1-9.3z" style="clip-path:url(#b);fill:#b9af4e"/><path d="m65.2 79.1 9.7 9.9h-.3l-9.4-9.6z" style="clip-path:url(#b);fill:#baaf4d"/><path d="m65.2 78.8 10 10.2h-.3l-9.7-9.9z" style="clip-path:url(#b);fill:#baae4d"/><path d="M65.2 78.4 75.5 89h-.3l-10-10.2z" style="clip-path:url(#b);fill:#bbae4c"/><path d="M65.2 78.1 75.8 89h-.3L65.2 78.4z" style="clip-path:url(#b);fill:#bcae4b"/><path d="M65.2 77.8 76.1 89h-.3L65.2 78.1z" style="clip-path:url(#b);fill:#bdae4a"/><path d="M65.2 77.5 76.4 89h-.3L65.2 77.8z" style="clip-path:url(#b);fill:#beae49"/><path d="M65.2 77.2 76.7 89h-.3L65.2 77.5z" style="clip-path:url(#b);fill:#beae48"/><path d="M65.2 76.8 77.1 89h-.4L65.2 77.2z" style="clip-path:url(#b);fill:#bfae47"/><path d="M65.2 76.5 77.4 89h-.3L65.2 76.8z" style="clip-path:url(#b);fill:#c0ae46"/><path d="M65.2 76.2 77.7 89h-.3L65.2 76.5z" style="clip-path:url(#b);fill:#c1ae45"/><path d="M65.2 75.9 78 89h-.3L65.2 76.2z" style="clip-path:url(#b);fill:#c2ae44"/><path d="M65.2 75.6 78.3 89H78L65.2 75.9z" style="clip-path:url(#b);fill:#c2ad43"/><path d="M65.2 75.3 78.6 89h-.3L65.2 75.6z" style="clip-path:url(#b);fill:#c3ad42"/><path d="M65.2 74.9 78.9 89h-.3L65.2 75.3z" style="clip-path:url(#b);fill:#c4ad42"/><path d="m65.2 74.6 14 14.4h-.3L65.2 74.9z" style="clip-path:url(#b);fill:#c5ad41"/><path d="M65.2 74.3 79.5 89h-.3l-14-14.4z" style="clip-path:url(#b);fill:#c6ad40"/><path d="m65.2 74 14.6 15h-.3L65.2 74.3z" style="clip-path:url(#b);fill:#c7ad3f"/><path d="m65.2 73.7 15 15.3h-.4L65.2 74z" style="clip-path:url(#b);fill:#c7ad3e"/><path d="M65.2 73.4 80.5 89h-.3l-15-15.3z" style="clip-path:url(#b);fill:#c8ad3d"/><path d="m65.2 73 15.6 16h-.3L65.2 73.4z" style="clip-path:url(#b);fill:#c9ad3c"/><path d="M65.2 72.7 81.1 89h-.3L65.2 73z" style="clip-path:url(#b);fill:#caad3b"/><path d="M65.2 72.4 81.4 89h-.3L65.2 72.7z" style="clip-path:url(#b);fill:#cbac3a"/><path d="M65.2 72.1 81.7 89h-.3L65.2 72.4z" style="clip-path:url(#b);fill:#ccac39"/><path d="M65.2 71.8 82 89h-.3L65.2 72.1z" style="clip-path:url(#b);fill:#ccac38"/><path d="M65.2 71.4 82.3 89H82L65.2 71.8z" style="clip-path:url(#b);fill:#cdac37"/><path d="M65.2 71.1 82.6 89h-.3L65.2 71.4z" style="clip-path:url(#b);fill:#ceac36"/><path d="M65.2 70.8 82.9 89h-.3L65.2 71.1z" style="clip-path:url(#b);fill:#cfac36"/><path d="M65.2 70.5 83.3 89h-.4L65.2 70.8z" style="clip-path:url(#b);fill:#cfac35"/><path d="M65.2 70.2 83.6 89h-.3L65.2 70.5z" style="clip-path:url(#b);fill:#d0ac34"/><path d="M65.2 69.9 83.9 89h-.3L65.2 70.2z" style="clip-path:url(#b);fill:#d1ac33"/><path d="m65.2 69.5 19 19.5h-.3L65.2 69.9z" style="clip-path:url(#b);fill:#d2ac32"/><path d="M65.2 69.2 84.5 89h-.3l-19-19.5z" style="clip-path:url(#b);fill:#d3ab31"/><path d="M65.2 68.9 84.8 89h-.3L65.2 69.2z" style="clip-path:url(#b);fill:#d3ab30"/><path d="M65.2 68.6 85.1 89h-.3L65.2 68.9z" style="clip-path:url(#b);fill:#d4ab2f"/><path d="M65.2 68.3 85.4 89h-.3L65.2 68.6z" style="clip-path:url(#b);fill:#d5ab2e"/><path d="m65.2 68 20.5 21h-.3L65.2 68.3z" style="clip-path:url(#b);fill:#d6ab2d"/><path d="M65.2 67.6 86 89h-.3L65.2 68z" style="clip-path:url(#b);fill:#d7ab2c"/><path d="M65.2 67.3 86.4 89H86L65.2 67.6z" style="clip-path:url(#b);fill:#d8ab2c"/><path d="m65.2 67 21.5 22h-.3L65.2 67.3z" style="clip-path:url(#b);fill:#d8ab2b"/><path d="M65.2 66.7 87 89h-.3L65.2 67z" style="clip-path:url(#b);fill:#d9aa2a"/><path d="M65.2 66.4 87.3 89H87L65.2 66.7z" style="clip-path:url(#b);fill:#daaa29"/><path d="m65.2 66 22.4 23h-.3L65.2 66.4z" style="clip-path:url(#b);fill:#dbaa28"/><path d="M65.2 65.7 87.9 89h-.3L65.2 66z" style="clip-path:url(#b);fill:#dcaa27"/><path d="m65.2 65.4 23 23.6h-.3L65.2 65.7z" style="clip-path:url(#b);fill:#dcaa26"/><path d="M65.2 65.1 88.5 89h-.3l-23-23.6z" style="clip-path:url(#b);fill:#ddaa25"/><path d="M65.2 64.8 88.8 89h-.3L65.2 65.1z" style="clip-path:url(#b);fill:#deaa24"/><path d="M65.2 64.5 89.1 89h-.3L65.2 64.8z" style="clip-path:url(#b);fill:#dfaa24"/><path d="M65.2 64.1 89.5 89h-.4L65.2 64.5z" style="clip-path:url(#b);fill:#e0aa23"/><path d="M65.2 63.8 89.8 89h-.3L65.2 64.1z" style="clip-path:url(#b);fill:#e1a922"/><path d="M65.2 63.5 90.1 89h-.3L65.2 63.8z" style="clip-path:url(#b);fill:#e1a921"/><path d="M65.2 63.2 90.4 89h-.3L65.2 63.5z" style="clip-path:url(#b);fill:#e2a920"/><path d="M65.2 62.9 90.7 89h-.3L65.2 63.2z" style="clip-path:url(#b);fill:#e3a91f"/><path d="M65.2 62.5 91 89h-.3L65.2 62.9z" style="clip-path:url(#b);fill:#e4a91e"/><path d="M65.2 62.2 91.3 89H91L65.2 62.5z" style="clip-path:url(#b);fill:#e5a91d"/><path d="M65.2 61.9 91.6 89h-.3L65.2 62.2z" style="clip-path:url(#b);fill:#e6a91c"/><path d="M65.2 61.6 91.9 89h-.3L65.2 61.9z" style="clip-path:url(#b);fill:#e6a91b"/><path d="m65.2 61.3 27 27.7h-.3L65.2 61.6z" style="clip-path:url(#b);fill:#e7a81a"/><path d="m65.2 61 27.4 28h-.4l-27-27.7z" style="clip-path:url(#b);fill:#e8a818"/><path d="M65.2 60.6 92.9 89h-.3L65.2 61z" style="clip-path:url(#b);fill:#e9a818"/><path d="m65.2 60.3 28 28.7h-.3L65.2 60.6z" style="clip-path:url(#b);fill:#eaa817"/><path d="m65.2 60 28.3 29h-.3l-28-28.7z" style="clip-path:url(#b);fill:#eaa816"/><path d="M65.2 59.7 93.8 89h-.3L65.2 60z" style="clip-path:url(#b);fill:#eba816"/><path d="M65.2 59.4 94.1 89h-.3L65.2 59.7z" style="clip-path:url(#b);fill:#eca815"/><path d="M65.2 59.1 94.4 89h-.3L65.2 59.4z" style="clip-path:url(#b);fill:#eda814"/><path d="M65.2 58.7 94.7 89h-.3L65.2 59.1z" style="clip-path:url(#b);fill:#eea714"/><path d="M65.2 58.4 95 89h-.3L65.2 58.7z" style="clip-path:url(#b);fill:#efa713"/><path d="M65.2 58.1 95.4 89H95L65.2 58.4z" style="clip-path:url(#b);fill:#efa712"/><path d="M65.2 57.8 95.7 89h-.3L65.2 58.1z" style="clip-path:url(#b);fill:#f0a712"/><path d="M65.2 57.5 96 89h-.3L65.2 57.8z" style="clip-path:url(#b);fill:#f1a711"/><path d="M65.2 57.1 96.3 89H96L65.2 57.5z" style="clip-path:url(#b);fill:#f2a710"/><path d="M65.2 56.6 96.8 89h-.5L65.2 57.1z" style="clip-path:url(#b);fill:#f2a710"/><path d="m65.2 56.2.1-.1L97.4 89h-.6L65.2 56.6z" style="clip-path:url(#b);fill:#f2a611"/><path d="m65.3 56.1.3-.3L98 89h-.6z" style="clip-path:url(#b);fill:#f2a511"/><path d="m65.6 55.8.3-.3L98.5 89H98z" style="clip-path:url(#b);fill:#f2a412"/><path d="m65.9 55.5.3-.2L99.1 89h-.6z" style="clip-path:url(#b);fill:#f2a312"/><path d="m66.2 55.3.2-.3 33.2 34h-.5z" style="clip-path:url(#b);fill:#f2a213"/><path d="m66.4 55 .3-.3L100.2 89h-.6z" style="clip-path:url(#b);fill:#f2a114"/><path d="m66.7 54.7.3-.3L100.8 89h-.6z" style="clip-path:url(#b);fill:#f2a014"/><path d="m67 54.4.3-.3 34 34.9h-.5z" style="clip-path:url(#b);fill:#f29f14"/><path d="m67.3 54.1.3-.2L101.9 89h-.6z" style="clip-path:url(#b);fill:#f29e15"/><path d="m67.6 53.9.3-.3L102.4 89h-.5z" style="clip-path:url(#b);fill:#f29e15"/><path d="m67.9 53.6.3-.3L103 89h-.6z" style="clip-path:url(#b);fill:#f29d16"/><path d="m68.2 53.3.3-.3 35 36h-.5z" style="clip-path:url(#b);fill:#f29c17"/><path d="m68.5 53 .2-.3L104.1 89h-.6z" style="clip-path:url(#b);fill:#f29b18"/><path d="m68.7 52.7.3-.2L104.7 89h-.6z" style="clip-path:url(#b);fill:#f29a18"/><path d="m69 52.5.3-.3L105.2 89h-.5z" style="clip-path:url(#b);fill:#f29919"/><path d="m69.3 52.2.3-.3L105.8 89h-.6z" style="clip-path:url(#b);fill:#f2981a"/><path d="m69.6 51.9.3-.3L106.3 89h-.5z" style="clip-path:url(#b);fill:#f2971b"/><path d="m69.9 51.6.3-.3L106.9 89h-.6z" style="clip-path:url(#b);fill:#f2961c"/><path d="m70.2 51.3.3-.2 37 37.9h-.6z" style="clip-path:url(#b);fill:#f2951c"/><path d="m70.5 51.1.2-.3L108 89h-.5z" style="clip-path:url(#b);fill:#f2941d"/><path d="m70.7 50.8.3-.3L108.6 89h-.6z" style="clip-path:url(#b);fill:#f2931e"/><path d="m71 50.5.3-.3L109.1 89h-.5z" style="clip-path:url(#b);fill:#f2931f"/><path d="m71.3 50.2.3-.3L109.7 89h-.6z" style="clip-path:url(#b);fill:#f2921f"/><path d="m71.6 49.9.3-.2L110.3 89h-.6z" style="clip-path:url(#b);fill:#f29120"/><path d="m71.9 49.7.3-.3L110.8 89h-.5z" style="clip-path:url(#b);fill:#f29021"/><path d="m72.2 49.4.3-.3 38.3 39.3v.6z" style="clip-path:url(#b);fill:#f28f21"/><path d="m72.5 49.1.2-.3 38.1 39v.6z" style="clip-path:url(#b);fill:#f28e22"/><path d="m72.7 48.8.3-.2 37.8 38.6v.6z" style="clip-path:url(#b);fill:#f28d23"/><path d="m73 48.6.3-.3 37.5 38.4v.5z" style="clip-path:url(#b);fill:#f28c23"/><path d="m73.3 48.3.3-.3 37.2 38.1v.6z" style="clip-path:url(#b);fill:#f28b24"/><path d="m73.6 48 .3-.3 36.9 37.8v.6z" style="clip-path:url(#b);fill:#f28a25"/><path d="m73.9 47.7.3-.3L110.8 85v.5z" style="clip-path:url(#b);fill:#f28925"/><path d="m74.2 47.4.3-.2 36.3 37.2v.6z" style="clip-path:url(#b);fill:#f28926"/><path d="m74.5 47.2.2-.3 36.1 36.9v.6z" style="clip-path:url(#b);fill:#f28826"/><path d="m74.7 46.9.3-.3 35.8 36.6v.6z" style="clip-path:url(#b);fill:#f28727"/><path d="m75 46.6.3-.3 35.5 36.4v.5z" style="clip-path:url(#b);fill:#f28627"/><path d="m75.3 46.3.3-.3 35.2 36.1v.6z" style="clip-path:url(#b);fill:#f28528"/><path d="m75.6 46 .3-.2 34.9 35.7v.6z" style="clip-path:url(#b);fill:#f28429"/><path d="m75.9 45.8.3-.3L110.8 81v.5z" style="clip-path:url(#b);fill:#f28329"/><path d="m76.2 45.5.3-.3 34.3 35.2v.6z" style="clip-path:url(#b);fill:#f2822a"/><path d="m76.5 45.2.2-.3 34.1 34.9v.6z" style="clip-path:url(#b);fill:#f2812b"/><path d="m76.7 44.9.3-.3 33.8 34.6v.6z" style="clip-path:url(#b);fill:#f2802c"/><path d="m77 44.6.3-.2 33.5 34.3v.5z" style="clip-path:url(#b);fill:#f27f2c"/><path d="m77.3 44.4.3-.3 33.2 34v.6z" style="clip-path:url(#b);fill:#f27e2d"/><path d="m77.6 44.1.3-.3 32.9 33.7v.6z" style="clip-path:url(#b);fill:#f27e2d"/><path d="m77.9 43.8.3-.3 32.6 33.4v.6z" style="clip-path:url(#b);fill:#f27d2e"/><path d="m78.2 43.5.3-.3 32.3 33.2v.5z" style="clip-path:url(#b);fill:#f27c2f"/><path d="m78.5 43.2.3-.2 32 32.8v.6z" style="clip-path:url(#b);fill:#f27b2f"/><path d="m78.8 43 .2-.3 31.8 32.5v.6z" style="clip-path:url(#b);fill:#f27a30"/><path d="m79 42.7.3-.3 31.5 32.3v.5z" style="clip-path:url(#b);fill:#f27931"/><path d="m79.3 42.4.3-.3 31.2 32v.6z" style="clip-path:url(#b);fill:#f27831"/><path d="m79.6 42.1.3-.3 30.9 31.7v.6z" style="clip-path:url(#b);fill:#f27732"/><path d="m79.9 41.8.3-.2 30.6 31.3v.6z" style="clip-path:url(#b);fill:#f27632"/><path d="m80.2 41.6.3-.3 30.3 31.1v.5z" style="clip-path:url(#b);fill:#f27533"/><path d="m80.5 41.3.3-.3 30 30.8v.6z" style="clip-path:url(#b);fill:#f27533"/><path d="m80.8 41 .2-.3 29.8 30.5v.6z" style="clip-path:url(#b);fill:#f27434"/><path d="m81 40.7.3-.2 29.5 30.1v.6z" style="clip-path:url(#b);fill:#f27335"/><path d="m81.3 40.5.3-.3 29.2 29.9v.5z" style="clip-path:url(#b);fill:#f27235"/><path d="m81.6 40.2.3-.3 28.9 29.6v.6z" style="clip-path:url(#b);fill:#f27136"/><path d="m81.9 39.9.3-.3 28.6 29.3v.6z" style="clip-path:url(#b);fill:#f27036"/><path d="m82.2 39.6.3-.3 28.3 29.1v.5z" style="clip-path:url(#b);fill:#f26f37"/><path d="m82.5 39.3.3-.2 28 28.7v.6z" style="clip-path:url(#b);fill:#f26e37"/><path d="m82.8 39.1.2-.3 27.8 28.4v.6z" style="clip-path:url(#b);fill:#f26d38"/><path d="m83 38.8.3-.3 27.5 28.1v.6z" style="clip-path:url(#b);fill:#f26c39"/><path d="m83.3 38.5.3-.3 27.2 27.9v.5z" style="clip-path:url(#b);fill:#f26b39"/><path d="m83.6 38.2.3-.3 26.9 27.6v.6z" style="clip-path:url(#b);fill:#f26a3a"/><path d="m83.9 37.9.3-.2 26.6 27.2v.6z" style="clip-path:url(#b);fill:#f26a3a"/><path d="m84.2 37.7.3-.3 26.3 27v.5z" style="clip-path:url(#b);fill:#f2693b"/><path d="m84.5 37.4.3-.3 26 26.7v.6z" style="clip-path:url(#b);fill:#f2683b"/><path d="m84.8 37.1.2-.3 25.8 26.4v.6z" style="clip-path:url(#b);fill:#f2673c"/><path d="m85 36.8.3-.3 25.5 26.1v.6z" style="clip-path:url(#b);fill:#f2663c"/><path d="m85.3 36.5.3-.2 25.2 25.8v.5z" style="clip-path:url(#b);fill:#f2653d"/><path d="m85.6 36.3.3-.3 24.9 25.5v.6z" style="clip-path:url(#b);fill:#f2643d"/><path d="m85.9 36 .3-.3 24.6 25.2v.6z" style="clip-path:url(#b);fill:#f2633e"/><path d="m86.2 35.7.3-.3 24.3 24.9v.6z" style="clip-path:url(#b);fill:#f2623e"/><path d="m86.5 35.4.3-.3 24 24.7v.5z" style="clip-path:url(#b);fill:#f2613f"/><path d="m86.8 35.1.3-.2 23.7 24.3v.6z" style="clip-path:url(#b);fill:#f2603f"/><path d="m87.1 34.9.2-.3 23.5 24v.6z" style="clip-path:url(#b);fill:#f26040"/><path d="m87.3 34.6.3-.3 23.2 23.8v.5z" style="clip-path:url(#b);fill:#f15f40"/><path d="m87.6 34.3.3-.3 22.9 23.5v.6z" style="clip-path:url(#b);fill:#f15e41"/><path d="m87.9 34 .3-.3 22.6 23.2v.6z" style="clip-path:url(#b);fill:#f15d41"/><path d="m88.2 33.7.3-.2 22.3 22.8v.6z" style="clip-path:url(#b);fill:#f15c42"/><path d="m88.5 33.5.3-.3 22 22.6v.5z" style="clip-path:url(#b);fill:#f15b42"/><path d="m88.8 33.2.2-.2h.1l21.7 22.2v.6z" style="clip-path:url(#b);fill:#f15a43"/><path d="m89.7 33 21.1 21.6v.6L89.1 33z" style="clip-path:url(#b);fill:#f15943"/><path d="m90.2 33 20.6 21v.6L89.7 33z" style="clip-path:url(#b);fill:#f15844"/><path d="m90.8 33 20 20.5v.5L90.2 33z" style="clip-path:url(#b);fill:#f15844"/><path d="m91.4 33 19.4 19.9v.6L90.8 33z" style="clip-path:url(#b);fill:#f15745"/><path d="m91.9 33 18.9 19.3v.6L91.4 33z" style="clip-path:url(#b);fill:#f15645"/><path d="m92.5 33 18.3 18.8v.5L91.9 33z" style="clip-path:url(#b);fill:#f15546"/><path d="m93 33 17.8 18.2v.6L92.5 33z" style="clip-path:url(#b);fill:#f15446"/><path d="m93.6 33 17.2 17.6v.6L93 33z" style="clip-path:url(#b);fill:#f15347"/><path d="m94.2 33 16.6 17v.6L93.6 33z" style="clip-path:url(#b);fill:#f15247"/><path d="m94.7 33 16.1 16.5v.5L94.2 33z" style="clip-path:url(#b);fill:#f15148"/><path d="m95.3 33 15.5 15.9v.6L94.7 33z" style="clip-path:url(#b);fill:#f15048"/><path d="m95.8 33 15 15.3v.6L95.3 33z" style="clip-path:url(#b);fill:#f14f48"/><path d="m96.4 33 14.4 14.7v.6L95.8 33z" style="clip-path:url(#b);fill:#f14e49"/><path d="m97 33 13.8 14.2v.5L96.4 33z" style="clip-path:url(#b);fill:#f14d49"/><path d="m97.5 33 13.3 13.6v.6L97 33z" style="clip-path:url(#b);fill:#f14c4a"/><path d="m98.1 33 12.7 13v.6L97.5 33z" style="clip-path:url(#b);fill:#f14c4a"/><path d="m98.6 33 12.2 12.5v.5L98.1 33z" style="clip-path:url(#b);fill:#f14b4b"/><path d="m99.2 33 11.6 11.9v.6L98.6 33z" style="clip-path:url(#b);fill:#f14a4b"/><path d="m99.7 33 11.1 11.3v.6L99.2 33z" style="clip-path:url(#b);fill:#f1494b"/><path d="m100.3 33 10.5 10.7v.6L99.7 33z" style="clip-path:url(#b);fill:#f1484c"/><path d="m100.9 33 9.9 10.2v.5L100.3 33z" style="clip-path:url(#b);fill:#f1474c"/><path d="m101.4 33 9.4 9.6v.6L100.9 33z" style="clip-path:url(#b);fill:#f1464d"/><path d="m102 33 8.8 9v.6l-9.4-9.6z" style="clip-path:url(#b);fill:#f1464d"/><path d="m102.5 33 8.3 8.5v.5l-8.8-9z" style="clip-path:url(#b);fill:#f1454d"/><path d="m103.1 33 7.7 7.9v.6l-8.3-8.5z" style="clip-path:url(#b);fill:#f1444e"/><path d="m103.7 33 7.1 7.3v.6l-7.7-7.9z" style="clip-path:url(#b);fill:#f1434e"/><path d="m104.2 33 6.6 6.7v.6l-7.1-7.3z" style="clip-path:url(#b);fill:#f1424f"/><path d="m104.8 33 6 6.2v.5l-6.6-6.7z" style="clip-path:url(#b);fill:#f1414f"/><path d="m105.3 33 5.5 5.6v.6l-6-6.2z" style="clip-path:url(#b);fill:#f0404f"/><path d="m105.9 33 4.9 5v.6l-5.5-5.6z" style="clip-path:url(#b);fill:#f03f50"/><path d="m106.5 33 4.3 4.4v.6l-4.9-5z" style="clip-path:url(#b);fill:#f03e50"/><path d="m107 33 3.8 3.9v.5l-4.3-4.4z" style="clip-path:url(#b);fill:#f03e51"/><path d="m107.6 33 3.2 3.3v.6L107 33z" style="clip-path:url(#b);fill:#f03d51"/><path d="m108.1 33 2.7 2.7v.6l-3.2-3.3z" style="clip-path:url(#b);fill:#f03c51"/><path d="m108.7 33 2.1 2.2v.5l-2.7-2.7z" style="clip-path:url(#b);fill:#f03b52"/><path d="m109.2 33 1.6 1.6v.6l-2.1-2.2z" style="clip-path:url(#b);fill:#f03a52"/><path d="m109.8 33 1 1v.6l-1.6-1.6z" style="clip-path:url(#b);fill:#f03952"/><path d="m110.4 33 .4.4v.6l-1-1z" style="clip-path:url(#b);fill:#f03853"/><path d="m110.8 33.4-.4-.4h.4z" style="clip-path:url(#b);fill:#f03753"/><path d="m59.3 122.3.4.4h-.4z" style="clip-path:url(#b);fill:#43b3bf"/><path d="m59.3 121.2 1.4 1.5h-1l-.4-.4z" style="clip-path:url(#b);fill:#43b4c0"/><path d="m59.3 120.2 2.5 2.5h-1.1l-1.4-1.5z" style="clip-path:url(#b);fill:#44b6c1"/><path d="m59.3 119.1 3.5 3.6h-1l-2.5-2.5z" style="clip-path:url(#b);fill:#44b7c3"/><path d="m59.3 118.8 3.8 3.9h-.3l-3.5-3.6z" style="clip-path:url(#b);fill:#44b7c3"/><path d="m59.3 118.5 4.1 4.2h-.3l-3.8-3.9z" style="clip-path:url(#b);fill:#45b7c2"/><path d="m59.3 118.1 4.5 4.6h-.4l-4.1-4.2z" style="clip-path:url(#b);fill:#46b7c1"/><path d="m59.3 117.8 4.8 4.9h-.3l-4.5-4.6z" style="clip-path:url(#b);fill:#47b7c1"/><path d="m59.3 117.5 5.1 5.2h-.3l-4.8-4.9z" style="clip-path:url(#b);fill:#48b7c0"/><path d="m59.3 117.2 5.4 5.5h-.3l-5.1-5.2z" style="clip-path:url(#b);fill:#48b7bf"/><path d="m59.3 116.9 5.7 5.8h-.3l-5.4-5.5z" style="clip-path:url(#b);fill:#49b7bf"/><path d="m59.3 116.6 6 6.1H65l-5.7-5.8z" style="clip-path:url(#b);fill:#4ab7be"/><path d="m59.3 116.2 6.3 6.5h-.3l-6-6.1z" style="clip-path:url(#b);fill:#4bb7bd"/><path d="m59.3 115.9 6.6 6.8h-.3l-6.3-6.5z" style="clip-path:url(#b);fill:#4cb7bd"/><path d="m59.3 115.6 6.9 7.1h-.3l-6.6-6.8z" style="clip-path:url(#b);fill:#4cb7bc"/><path d="m59.3 115.3 7.2 7.4h-.3l-6.9-7.1z" style="clip-path:url(#b);fill:#4db7bb"/><path d="m59.3 115 7.6 7.7h-.4l-7.2-7.4z" style="clip-path:url(#b);fill:#4eb7ba"/><path d="m59.3 114.6 7.9 8.1h-.3l-7.6-7.7z" style="clip-path:url(#b);fill:#4fb7ba"/><path d="m59.3 114.3 8.2 8.4h-.3l-7.9-8.1z" style="clip-path:url(#b);fill:#50b6b9"/><path d="m59.3 114 8.5 8.7h-.3l-8.2-8.4z" style="clip-path:url(#b);fill:#50b6b8"/><path d="m59.3 113.7 8.8 9h-.3l-8.5-8.7z" style="clip-path:url(#b);fill:#51b6b8"/><path d="m59.3 113.4 9.1 9.3h-.3l-8.8-9z" style="clip-path:url(#b);fill:#52b6b7"/><path d="m59.3 113.1 9.4 9.6h-.3l-9.1-9.3z" style="clip-path:url(#b);fill:#53b6b6"/><path d="m59.3 112.7 9.7 10h-.3l-9.4-9.6z" style="clip-path:url(#b);fill:#54b6b6"/><path d="m59.3 112.4 10 10.3H69l-9.7-10z" style="clip-path:url(#b);fill:#55b6b5"/><path d="m59.3 112.1 10.3 10.6h-.3l-10-10.3z" style="clip-path:url(#b);fill:#56b6b4"/><path d="M59.3 111.8 70 122.7h-.4l-10.3-10.6z" style="clip-path:url(#b);fill:#56b6b3"/><path d="m59.3 111.5 11 11.2H70l-10.7-10.9z" style="clip-path:url(#b);fill:#57b6b3"/><path d="m59.3 111.2 11.3 11.5h-.3l-11-11.2z" style="clip-path:url(#b);fill:#58b6b2"/><path d="m59.3 110.8 11.6 11.9h-.3l-11.3-11.5z" style="clip-path:url(#b);fill:#59b6b1"/><path d="m59.3 110.5 11.9 12.2h-.3l-11.6-11.9z" style="clip-path:url(#b);fill:#5ab6b0"/><path d="m59.3 110.2 12.2 12.5h-.3l-11.9-12.2z" style="clip-path:url(#b);fill:#5bb6b0"/><path d="m59.3 109.9 12.5 12.8h-.3l-12.2-12.5z" style="clip-path:url(#b);fill:#5bb6af"/><path d="m59.3 109.6 12.8 13.1h-.3l-12.5-12.8z" style="clip-path:url(#b);fill:#5cb6ae"/><path d="m59.3 109.2 13.1 13.5h-.3l-12.8-13.1z" style="clip-path:url(#b);fill:#5db6ae"/><path d="m59.3 108.9 13.4 13.8h-.3l-13.1-13.5z" style="clip-path:url(#b);fill:#5eb6ad"/><path d="m59.3 108.6 13.8 14.1h-.4l-13.4-13.8z" style="clip-path:url(#b);fill:#5fb6ac"/><path d="m59.3 108.3 14.1 14.4h-.3l-13.8-14.1z" style="clip-path:url(#b);fill:#5fb6ab"/><path d="m59.3 108 14.4 14.7h-.3l-14.1-14.4z" style="clip-path:url(#b);fill:#60b6ab"/><path d="m59.3 107.7 14.7 15h-.3L59.3 108z" style="clip-path:url(#b);fill:#61b6aa"/><path d="m59.3 107.3 15 15.4H74l-14.7-15z" style="clip-path:url(#b);fill:#62b6a9"/><path d="m59.3 107 15.3 15.7h-.3l-15-15.4z" style="clip-path:url(#b);fill:#63b5a8"/><path d="m59.3 106.7 15.6 16h-.3L59.3 107z" style="clip-path:url(#b);fill:#63b5a7"/><path d="m59.3 106.4 15.9 16.3h-.3l-15.6-16z" style="clip-path:url(#b);fill:#64b5a7"/><path d="m59.3 106.1 16.2 16.6h-.3l-15.9-16.3z" style="clip-path:url(#b);fill:#65b5a6"/><path d="m59.3 105.7 16.5 17h-.3l-16.2-16.6z" style="clip-path:url(#b);fill:#66b5a5"/><path d="m59.3 105.4 16.9 17.3h-.4l-16.5-17z" style="clip-path:url(#b);fill:#67b5a4"/><path d="m59.3 105.1 17.2 17.6h-.3l-16.9-17.3z" style="clip-path:url(#b);fill:#67b5a4"/><path d="m59.3 104.8 17.5 17.9h-.3l-17.2-17.6z" style="clip-path:url(#b);fill:#68b5a3"/><path d="m59.3 104.5 17.8 18.2h-.3l-17.5-17.9z" style="clip-path:url(#b);fill:#69b5a2"/><path d="m59.3 104.2 18.1 18.5h-.3l-17.8-18.2z" style="clip-path:url(#b);fill:#6ab5a1"/><path d="m59.3 103.8 18.4 18.9h-.3l-18.1-18.5z" style="clip-path:url(#b);fill:#6bb5a1"/><path d="M59.3 103.5 78 122.7h-.3l-18.4-18.9z" style="clip-path:url(#b);fill:#6cb5a0"/><path d="m59.3 103.2 19 19.5H78l-18.7-19.2z" style="clip-path:url(#b);fill:#6cb59f"/><path d="m59.3 102.9 19.3 19.8h-.3l-19-19.5z" style="clip-path:url(#b);fill:#6db59e"/><path d="m59.3 102.6 19.6 20.1h-.3l-19.3-19.8z" style="clip-path:url(#b);fill:#6eb59d"/><path d="m59.3 102.3 20 20.4h-.4l-19.6-20.1z" style="clip-path:url(#b);fill:#6fb59d"/><path d="m59.3 101.9 20.3 20.8h-.3l-20-20.4z" style="clip-path:url(#b);fill:#70b59c"/><path d="m59.3 101.6 20.6 21.1h-.3l-20.3-20.8z" style="clip-path:url(#b);fill:#71b59b"/><path d="m59.3 101.3 20.9 21.4h-.3l-20.6-21.1z" style="clip-path:url(#b);fill:#71b59a"/><path d="m59.3 101 21.2 21.7h-.3l-20.9-21.4z" style="clip-path:url(#b);fill:#72b599"/><path d="m59.3 100.7 21.5 22h-.3L59.3 101z" style="clip-path:url(#b);fill:#73b599"/><path d="m59.3 100.3 21.8 22.4h-.3l-21.5-22z" style="clip-path:url(#b);fill:#74b598"/><path d="m59.3 100 22.1 22.7h-.3l-21.8-22.4z" style="clip-path:url(#b);fill:#75b497"/><path d="m59.3 99.7 22.4 22.9v.1h-.3L59.3 100z" style="clip-path:url(#b);fill:#75b496"/><path d="m59.3 99.4 22.6 23.1-.2.1-22.4-22.9z" style="clip-path:url(#b);fill:#76b495"/><path d="M59.3 99.1 82 122.3l-.1.2-22.6-23.1z" style="clip-path:url(#b);fill:#77b495"/><path d="m59.3 98.8 22.9 23.4-.2.1-22.7-23.2z" style="clip-path:url(#b);fill:#78b494"/><path d="m59.3 98.4 23 23.6-.1.2-22.9-23.4z" style="clip-path:url(#b);fill:#79b493"/><path d="m59.3 98.1 23.2 23.8-.2.1-23-23.6z" style="clip-path:url(#b);fill:#79b492"/><path d="m59.3 97.8 23.4 23.9-.2.2-23.2-23.8z" style="clip-path:url(#b);fill:#7ab491"/><path d="m59.3 97.5 23.5 24.1-.1.1-23.4-23.9z" style="clip-path:url(#b);fill:#7bb491"/><path d="M59.3 97.2 83 121.4l-.2.2-23.5-24.1z" style="clip-path:url(#b);fill:#7cb490"/><path d="m59.3 96.9 23.8 24.4-.1.1-23.7-24.2z" style="clip-path:url(#b);fill:#7db48f"/><path d="m59.3 96.5 24 24.6-.2.2-23.8-24.4z" style="clip-path:url(#b);fill:#7db48e"/><path d="m59.3 96.2 24.1 24.7-.1.2-24-24.6z" style="clip-path:url(#b);fill:#7eb48d"/><path d="m59.3 95.9 24.3 24.9-.2.1-24.1-24.7z" style="clip-path:url(#b);fill:#7fb48c"/><path d="m59.3 95.6 24.5 25-.2.2-24.3-24.9z" style="clip-path:url(#b);fill:#80b48c"/><path d="m59.3 95.3 24.6 25.2-.1.1-24.5-25z" style="clip-path:url(#b);fill:#81b48b"/><path d="m59.3 94.9 24.8 25.4-.2.2-24.6-25.2z" style="clip-path:url(#b);fill:#82b48a"/><path d="m59.3 94.6 24.9 25.6-.1.1-24.8-25.4z" style="clip-path:url(#b);fill:#82b489"/><path d="M59.3 94.3 84.4 120l-.2.2-24.9-25.6z" style="clip-path:url(#b);fill:#83b388"/><path d="m59.3 94 25.3 25.9-.2.1-25.1-25.7z" style="clip-path:url(#b);fill:#84b388"/><path d="m59.3 93.7 25.4 26-.1.2L59.3 94z" style="clip-path:url(#b);fill:#85b387"/><path d="m59.3 93.4 25.6 26.1-.2.2-25.4-26z" style="clip-path:url(#b);fill:#86b386"/><path d="M59.3 93 85 119.4l-.1.1-25.6-26.1z" style="clip-path:url(#b);fill:#86b385"/><path d="m59.3 92.7 25.9 26.5-.2.2L59.3 93z" style="clip-path:url(#b);fill:#87b384"/><path d="m59.3 92.4 26.1 26.7-.2.1-25.9-26.5z" style="clip-path:url(#b);fill:#88b383"/><path d="m59.3 92.1 26.2 26.8-.1.2-26.1-26.7z" style="clip-path:url(#b);fill:#89b382"/><path d="m59.3 91.8 26.4 27-.2.1-26.2-26.8z" style="clip-path:url(#b);fill:#8ab382"/><path d="m59.3 91.5 26.5 27.1-.1.2-26.4-27z" style="clip-path:url(#b);fill:#8bb381"/><path d="M59.3 91.1 86 118.5l-.2.1-26.5-27.1z" style="clip-path:url(#b);fill:#8bb380"/><path d="m59.3 90.8 26.8 27.5-.1.2-26.7-27.4z" style="clip-path:url(#b);fill:#8cb37f"/><path d="m59.3 90.5 27 27.7-.2.1-26.8-27.5z" style="clip-path:url(#b);fill:#8db37e"/><path d="M59.3 90.2 86.5 118l-.2.2-27-27.7z" style="clip-path:url(#b);fill:#8eb37d"/><path d="m59.3 89.9 27.3 27.9-.1.2-27.2-27.8z" style="clip-path:url(#b);fill:#8fb37c"/><path d="m59.3 89.5 27.5 28.2-.2.1-27.3-27.9z" style="clip-path:url(#b);fill:#8fb37c"/><path d="m59.3 89.2 27.6 28.3-.1.2-27.5-28.2z" style="clip-path:url(#b);fill:#90b27b"/><path d="m59.3 88.9 27.8 28.5-.2.1-27.6-28.3z" style="clip-path:url(#b);fill:#91b27a"/><path d="m59.3 88.6 28 28.6-.2.2-27.8-28.5z" style="clip-path:url(#b);fill:#92b279"/><path d="m59.3 88.3 28.1 28.8-.1.1-28-28.6z" style="clip-path:url(#b);fill:#93b278"/><path d="m59.3 88 28.3 28.9-.2.2-28.1-28.8z" style="clip-path:url(#b);fill:#93b277"/><path d="m59.3 87.6 28.4 29.2-.1.1L59.3 88z" style="clip-path:url(#b);fill:#94b276"/><path d="m59.3 87.3 28.6 29.3-.2.2-28.4-29.2z" style="clip-path:url(#b);fill:#95b276"/><path d="m59.3 87 28.8 29.4-.2.2-28.6-29.3z" style="clip-path:url(#b);fill:#96b275"/><path d="m59.3 86.7 28.9 29.6-.1.1L59.3 87z" style="clip-path:url(#b);fill:#97b274"/><path d="m59.3 86.4 29.1 29.7-.2.2-28.9-29.6z" style="clip-path:url(#b);fill:#97b273"/><path d="m59.3 86 29.2 30-.1.1-29.1-29.7z" style="clip-path:url(#b);fill:#98b272"/><path d="m59.3 85.7 29.4 30.1-.2.2-29.2-30z" style="clip-path:url(#b);fill:#99b271"/><path d="m59.3 85.4 29.5 30.3-.1.1-29.4-30.1z" style="clip-path:url(#b);fill:#9ab270"/><path d="M59.3 85.1 89 115.5l-.2.2-29.5-30.3z" style="clip-path:url(#b);fill:#9bb26f"/><path d="m59.3 84.8 29.9 30.6-.2.1-29.7-30.4z" style="clip-path:url(#b);fill:#9cb16f"/><path d="m59.3 84.5 30 30.7-.1.2-29.9-30.6z" style="clip-path:url(#b);fill:#9cb16e"/><path d="m59.3 84.1 30.2 31-.2.1-30-30.7z" style="clip-path:url(#b);fill:#9db16d"/><path d="m59.3 83.8 30.3 31.1-.1.2-30.2-31z" style="clip-path:url(#b);fill:#9eb16c"/><path d="m59.3 83.5 30.5 31.2-.2.2-30.3-31.1z" style="clip-path:url(#b);fill:#9fb16b"/><path d="M59.3 83.2 90 114.6l-.2.1-30.5-31.2z" style="clip-path:url(#b);fill:#a0b16a"/><path d="m59.3 82.9 30.8 31.5-.1.2-30.7-31.4z" style="clip-path:url(#b);fill:#a0b169"/><path d="m59.3 82.6 31 31.7-.2.1-30.8-31.5z" style="clip-path:url(#b);fill:#a1b168"/><path d="m59.3 82.2 31.1 31.9-.1.2-31-31.7z" style="clip-path:url(#b);fill:#a2b168"/><path d="M59.3 81.9 90.6 114l-.2.1-31.1-31.9z" style="clip-path:url(#b);fill:#a3b167"/><path d="m59.3 81.6 31.5 32.2-.2.2-31.3-32.1z" style="clip-path:url(#b);fill:#a4b166"/><path d="m59.3 81.3 31.6 32.4-.1.1-31.5-32.2z" style="clip-path:url(#b);fill:#a4b165"/><path d="m59.3 81 31.8 32.5-.2.2-31.6-32.4z" style="clip-path:url(#b);fill:#a5b164"/><path d="m59.3 80.6 31.9 32.7-.1.2L59.3 81z" style="clip-path:url(#b);fill:#a6b163"/><path d="m59.3 80.3 32.1 32.9-.2.1-31.9-32.7z" style="clip-path:url(#b);fill:#a7b062"/><path d="m59.3 80 32.2 33-.1.2-32.1-32.9z" style="clip-path:url(#b);fill:#a8b061"/><path d="m59.3 79.7 32.4 33.2-.2.1-32.2-33z" style="clip-path:url(#b);fill:#a8b060"/><path d="m59.3 79.4 32.6 33.3-.2.2-32.4-33.2z" style="clip-path:url(#b);fill:#a9b060"/><path d="M59.3 79.1 92 112.6l-.1.1-32.6-33.3z" style="clip-path:url(#b);fill:#aab05f"/><path d="m59.3 78.7 32.9 33.7-.2.2-32.7-33.5z" style="clip-path:url(#b);fill:#abb05e"/><path d="m59.3 78.4 33 33.9-.1.1-32.9-33.7z" style="clip-path:url(#b);fill:#acb05d"/><path d="m59.3 78.1 33.2 34-.2.2-33-33.9z" style="clip-path:url(#b);fill:#acb05c"/><path d="M59.3 77.8 92.7 112l-.2.1-33.2-34z" style="clip-path:url(#b);fill:#adb05b"/><path d="m59.3 77.5 33.5 34.3-.1.2-33.4-34.2z" style="clip-path:url(#b);fill:#aeb05a"/><path d="M59.3 77.2 93 111.6l-.2.2-33.5-34.3z" style="clip-path:url(#b);fill:#afb059"/><path d="m59.3 76.8 33.8 34.7-.1.1-33.7-34.4z" style="clip-path:url(#b);fill:#b0b058"/><path d="m59.3 76.5 34 34.8-.2.2-33.8-34.7z" style="clip-path:url(#b);fill:#b1b057"/><path d="m59.3 76.2 34.2 35-.2.1-34-34.8z" style="clip-path:url(#b);fill:#b1af57"/><path d="M59.3 75.9 93.6 111l-.1.2-34.2-35z" style="clip-path:url(#b);fill:#b2af56"/><path d="m59.3 75.6 34.5 35.3-.2.1-34.3-35.1z" style="clip-path:url(#b);fill:#b3af55"/><path d="m59.3 75.2 34.6 35.5-.1.2-34.5-35.3z" style="clip-path:url(#b);fill:#b4af54"/><path d="m59.3 74.9 34.8 35.7-.2.1-34.6-35.5z" style="clip-path:url(#b);fill:#b5af53"/><path d="m59.3 74.6 34.9 35.8-.1.2-34.8-35.7z" style="clip-path:url(#b);fill:#b5af52"/><path d="m59.3 74.3 35.1 35.9-.2.2-34.9-35.8z" style="clip-path:url(#b);fill:#b6af51"/><path d="m59.3 74 35.3 36.1-.2.1-35.1-35.9z" style="clip-path:url(#b);fill:#b7af50"/><path d="m59.3 73.7 35.4 36.2-.1.2L59.3 74z" style="clip-path:url(#b);fill:#b8af4f"/><path d="m59.3 73.3 35.6 36.5-.2.1-35.4-36.2z" style="clip-path:url(#b);fill:#b9af4e"/><path d="M59.3 73 95 109.6l-.1.2-35.6-36.5z" style="clip-path:url(#b);fill:#baaf4d"/><path d="m59.3 72.7 35.9 36.8-.2.1L59.3 73z" style="clip-path:url(#b);fill:#baae4d"/><path d="m59.3 72.4 36.1 36.9-.2.2-35.9-36.8z" style="clip-path:url(#b);fill:#bbae4c"/><path d="m59.3 72.1 36.2 37.1-.1.1-36.1-36.9z" style="clip-path:url(#b);fill:#bcae4b"/><path d="M59.3 71.8 95.7 109l-.2.2-36.2-37.1z" style="clip-path:url(#b);fill:#bdae4a"/><path d="m59.3 71.4 36.5 37.5-.1.1-36.4-37.2z" style="clip-path:url(#b);fill:#beae49"/><path d="M59.3 71.1 96 108.7l-.2.2-36.5-37.5z" style="clip-path:url(#b);fill:#beae48"/><path d="m59.3 70.8 36.9 37.7-.2.2-36.7-37.6z" style="clip-path:url(#b);fill:#bfae47"/><path d="m59.3 70.5 37 37.9-.1.1-36.9-37.7z" style="clip-path:url(#b);fill:#c0ae46"/><path d="m59.3 70.2 37.2 38-.2.2-37-37.9z" style="clip-path:url(#b);fill:#c1ae45"/><path d="m59.3 69.8 37.3 38.3-.1.1-37.2-38z" style="clip-path:url(#b);fill:#c2ae44"/><path d="m59.3 69.5 37.5 38.4-.2.2-37.3-38.3z" style="clip-path:url(#b);fill:#c2ad43"/><path d="m59.3 69.2 37.6 38.6-.1.1-37.5-38.4z" style="clip-path:url(#b);fill:#c3ad42"/><path d="m59.3 68.9 37.8 38.7-.2.2-37.6-38.6z" style="clip-path:url(#b);fill:#c4ad42"/><path d="m59.3 68.6 38 38.9-.2.1-37.8-38.7z" style="clip-path:url(#b);fill:#c5ad41"/><path d="m59.3 68.3 38.1 39-.1.2-38-38.9z" style="clip-path:url(#b);fill:#c6ad40"/><path d="m59.3 67.9 38.3 39.2-.2.2-38.1-39z" style="clip-path:url(#b);fill:#c7ad3f"/><path d="M59.3 67.6 97.7 107l-.1.1-38.3-39.2z" style="clip-path:url(#b);fill:#c7ad3e"/><path d="m59.3 67.3 38.6 39.5-.2.2-38.4-39.4z" style="clip-path:url(#b);fill:#c8ad3d"/><path d="m59.3 67 38.8 39.7-.2.1-38.6-39.5z" style="clip-path:url(#b);fill:#c9ad3c"/><path d="m59.3 66.7 38.9 39.8-.1.2L59.3 67z" style="clip-path:url(#b);fill:#caad3b"/><path d="m59.7 66.7 38.7 39.7-.2.1-38.9-39.8z" style="clip-path:url(#b);fill:#cbac3a"/><path d="m60 66.7 38.5 39.5-.1.2-38.7-39.7z" style="clip-path:url(#b);fill:#ccac39"/><path d="m60.3 66.7 38.4 39.4-.2.1L60 66.7z" style="clip-path:url(#b);fill:#ccac38"/><path d="m60.6 66.7 38.3 39.2-.2.2-38.4-39.4z" style="clip-path:url(#b);fill:#cdac37"/><path d="M60.9 66.7 99 105.8l-.1.1-38.3-39.2z" style="clip-path:url(#b);fill:#ceac36"/><path d="m61.2 66.7 38 38.9-.2.2-38.1-39.1z" style="clip-path:url(#b);fill:#cfac36"/><path d="m61.5 66.7 37.8 38.7-.1.2-38-38.9z" style="clip-path:url(#b);fill:#cfac35"/><path d="m61.8 66.7 37.7 38.6-.2.1-37.8-38.7z" style="clip-path:url(#b);fill:#d0ac34"/><path d="m62.1 66.7 37.5 38.4-.1.2-37.7-38.6z" style="clip-path:url(#b);fill:#d1ac33"/><path d="M62.5 66.7 99.8 105l-.2.1-37.5-38.4z" style="clip-path:url(#b);fill:#d2ac32"/><path d="m62.8 66.7 37.2 38.1-.2.2-37.3-38.3z" style="clip-path:url(#b);fill:#d3ab31"/><path d="m63.1 66.7 37 38-.1.1-37.2-38.1z" style="clip-path:url(#b);fill:#d3ab30"/><path d="m63.4 66.7 36.9 37.8-.2.2-37-38z" style="clip-path:url(#b);fill:#d4ab2f"/><path d="m63.7 66.7 36.7 37.7-.1.1-36.9-37.8z" style="clip-path:url(#b);fill:#d5ab2e"/><path d="m64 66.7 36.6 37.5-.2.2-36.7-37.7z" style="clip-path:url(#b);fill:#d6ab2d"/><path d="m64.3 66.7 36.5 37.3-.2.2L64 66.7z" style="clip-path:url(#b);fill:#d7ab2c"/><path d="m64.6 66.7 36.3 37.2-.1.1-36.5-37.3z" style="clip-path:url(#b);fill:#d8ab2c"/><path d="m64.9 66.7 36.2 37-.2.2-36.3-37.2z" style="clip-path:url(#b);fill:#d8ab2b"/><path d="m65.2 66.7 36 36.9-.1.1-36.2-37z" style="clip-path:url(#b);fill:#d9aa2a"/><path d="m65.6 66.7 35.8 36.7-.2.2-36-36.9z" style="clip-path:url(#b);fill:#daaa29"/><path d="m65.9 66.7 35.7 36.6-.2.1-35.8-36.7z" style="clip-path:url(#b);fill:#dbaa28"/><path d="m66.2 66.7 35.5 36.4-.1.2-35.7-36.6z" style="clip-path:url(#b);fill:#dcaa27"/><path d="m66.5 66.7 35.4 36.3-.2.1-35.5-36.4z" style="clip-path:url(#b);fill:#dcaa26"/><path d="m66.8 66.7 35.2 36.1-.1.2-35.4-36.3z" style="clip-path:url(#b);fill:#ddaa25"/><path d="m67.1 66.7 35.1 36-.2.1-35.2-36.1z" style="clip-path:url(#b);fill:#deaa24"/><path d="m67.4 66.7 34.9 35.8-.1.2-35.1-36z" style="clip-path:url(#b);fill:#dfaa24"/><path d="m67.7 66.7 34.8 35.6-.2.2-34.9-35.8z" style="clip-path:url(#b);fill:#e0aa23"/><path d="m68 66.7 34.7 35.5-.2.1-34.8-35.6z" style="clip-path:url(#b);fill:#e1a922"/><path d="m68.3 66.7 34.5 35.3-.1.2L68 66.7z" style="clip-path:url(#b);fill:#e1a921"/><path d="m68.7 66.7 34.3 35.2-.2.1-34.5-35.3z" style="clip-path:url(#b);fill:#e2a920"/><path d="m69 66.7 34.1 35-.1.2-34.3-35.2z" style="clip-path:url(#b);fill:#e3a91f"/><path d="m69.3 66.7 34 34.9-.2.1-34.1-35z" style="clip-path:url(#b);fill:#e4a91e"/><path d="m69.6 66.7 33.9 34.7-.2.2-34-34.9z" style="clip-path:url(#b);fill:#e5a91d"/><path d="m69.9 66.7 33.7 34.6-.1.1-33.9-34.7z" style="clip-path:url(#b);fill:#e6a91c"/><path d="m70.2 66.7 33.6 34.4-.2.2-33.7-34.6z" style="clip-path:url(#b);fill:#e6a91b"/><path d="m70.5 66.7 33.4 34.2-.1.2-33.6-34.4z" style="clip-path:url(#b);fill:#e7a81a"/><path d="m70.8 66.7 33.3 34.1-.2.1-33.4-34.2z" style="clip-path:url(#b);fill:#e8a818"/><path d="m71.1 66.7 33.2 33.9-.2.2-33.3-34.1z" style="clip-path:url(#b);fill:#e9a818"/><path d="m71.4 66.7 33 33.8-.1.1-33.2-33.9z" style="clip-path:url(#b);fill:#eaa817"/><path d="m71.8 66.7 32.8 33.6-.2.2-33-33.8z" style="clip-path:url(#b);fill:#eaa816"/><path d="m72.1 66.7 32.6 33.5-.1.1-32.8-33.6z" style="clip-path:url(#b);fill:#eba816"/><path d="m72.4 66.7 32.5 33.3-.2.2-32.6-33.5z" style="clip-path:url(#b);fill:#eca815"/><path d="m72.7 66.7 32.2 33v.3L72.4 66.7z" style="clip-path:url(#b);fill:#eda814"/><path d="m73 66.7 31.9 32.7v.3l-32.2-33z" style="clip-path:url(#b);fill:#eea714"/><path d="m73.3 66.7 31.6 32.4v.3L73 66.7z" style="clip-path:url(#b);fill:#efa713"/><path d="m73.6 66.7 31.3 32.1v.3L73.3 66.7z" style="clip-path:url(#b);fill:#efa712"/><path d="m73.9 66.7 31 31.7v.4L73.6 66.7z" style="clip-path:url(#b);fill:#f0a712"/><path d="m74.2 66.7 30.7 31.4v.3l-31-31.7z" style="clip-path:url(#b);fill:#f1a711"/><path d="m74.5 66.7 30.4 31.1v.3L74.2 66.7z" style="clip-path:url(#b);fill:#f2a710"/><path d="m75.1 66.7 29.8 30.5v.6L74.5 66.7z" style="clip-path:url(#b);fill:#f2a710"/><path d="m75.7 66.7 29.2 30v.5L75.1 66.7z" style="clip-path:url(#b);fill:#f2a611"/><path d="m76.2 66.7 28.7 29.4v.6l-29.2-30z" style="clip-path:url(#b);fill:#f2a511"/><path d="m76.8 66.7 28.1 28.8v.6L76.2 66.7z" style="clip-path:url(#b);fill:#f2a412"/><path d="m77.3 66.7 27.6 28.2v.6L76.8 66.7z" style="clip-path:url(#b);fill:#f2a312"/><path d="m77.9 66.7 27 27.7v.5L77.3 66.7z" style="clip-path:url(#b);fill:#f2a213"/><path d="m78.5 66.7 26.4 27.1v.6l-27-27.7z" style="clip-path:url(#b);fill:#f2a114"/><path d="m79 66.7 25.9 26.5v.6L78.5 66.7z" style="clip-path:url(#b);fill:#f2a014"/><path d="m79.6 66.7 25.3 25.9v.6L79 66.7z" style="clip-path:url(#b);fill:#f29f14"/><path d="m80.1 66.7 24.8 25.4v.5L79.6 66.7z" style="clip-path:url(#b);fill:#f29e15"/><path d="m80.7 66.7 24.2 24.8v.6L80.1 66.7z" style="clip-path:url(#b);fill:#f29e15"/><path d="m81.3 66.7 23.6 24.2v.6L80.7 66.7z" style="clip-path:url(#b);fill:#f29d16"/><path d="m81.8 66.7 23.1 23.7v.5L81.3 66.7z" style="clip-path:url(#b);fill:#f29c17"/><path d="m82.4 66.7 22.5 23.1v.6L81.8 66.7z" style="clip-path:url(#b);fill:#f29b18"/><path d="m82.9 66.7 22 22.5v.6L82.4 66.7z" style="clip-path:url(#b);fill:#f29a18"/><path d="m83.5 66.7 21.4 21.9v.6l-22-22.5z" style="clip-path:url(#b);fill:#f29919"/><path d="m84 66.7 20.9 21.4v.5L83.5 66.7z" style="clip-path:url(#b);fill:#f2981a"/><path d="m84.6 66.7 20.3 20.8v.6L84 66.7z" style="clip-path:url(#b);fill:#f2971b"/><path d="m85.2 66.7 19.7 20.2v.6L84.6 66.7z" style="clip-path:url(#b);fill:#f2961c"/><path d="m85.7 66.7 19.2 19.7v.5L85.2 66.7z" style="clip-path:url(#b);fill:#f2951c"/><path d="m86.3 66.7 18.6 19.1v.6L85.7 66.7z" style="clip-path:url(#b);fill:#f2941d"/><path d="m86.8 66.7 18.1 18.5v.6L86.3 66.7z" style="clip-path:url(#b);fill:#f2931e"/><path d="m87.4 66.7 17.5 17.9v.6L86.8 66.7z" style="clip-path:url(#b);fill:#f2931f"/><path d="m88 66.7 16.9 17.4v.5L87.4 66.7z" style="clip-path:url(#b);fill:#f2921f"/><path d="m88.5 66.7 16.4 16.8v.6L88 66.7z" style="clip-path:url(#b);fill:#f29120"/><path d="m89.1 66.7 15.8 16.2v.6L88.5 66.7z" style="clip-path:url(#b);fill:#f29021"/><path d="m89.6 66.7 15.3 15.6v.6L89.1 66.7z" style="clip-path:url(#b);fill:#f28f21"/><path d="m90.2 66.7 14.7 15.1v.5L89.6 66.7z" style="clip-path:url(#b);fill:#f28e22"/><path d="m90.8 66.7 14.1 14.5v.6L90.2 66.7z" style="clip-path:url(#b);fill:#f28d23"/><path d="m91.3 66.7 13.6 13.9v.6L90.8 66.7z" style="clip-path:url(#b);fill:#f28c23"/><path d="m91.9 66.7 13 13.4v.5L91.3 66.7z" style="clip-path:url(#b);fill:#f28b24"/><path d="m92.4 66.7 12.5 12.8v.6l-13-13.4z" style="clip-path:url(#b);fill:#f28a25"/><path d="m93 66.7 11.9 12.2v.6L92.4 66.7z" style="clip-path:url(#b);fill:#f28925"/><path d="m93.5 66.7 11.4 11.6v.6L93 66.7z" style="clip-path:url(#b);fill:#f28926"/><path d="m94.1 66.7 10.8 11.1v.5L93.5 66.7z" style="clip-path:url(#b);fill:#f28826"/><path d="m94.7 66.7 10.2 10.5v.6L94.1 66.7z" style="clip-path:url(#b);fill:#f28727"/><path d="m95.2 66.7 9.7 9.9v.6L94.7 66.7z" style="clip-path:url(#b);fill:#f28627"/><path d="m95.8 66.7 9.1 9.3v.6l-9.7-9.9z" style="clip-path:url(#b);fill:#f28528"/><path d="m96.3 66.7 8.6 8.8v.5l-9.1-9.3z" style="clip-path:url(#b);fill:#f28429"/><path d="m96.9 66.7 8 8.2v.6l-8.6-8.8z" style="clip-path:url(#b);fill:#f28329"/><path d="m97.5 66.7 7.4 7.6v.6l-8-8.2z" style="clip-path:url(#b);fill:#f2822a"/><path d="m98 66.7 6.9 7.1v.5l-7.4-7.6z" style="clip-path:url(#b);fill:#f2812b"/><path d="m98.6 66.7 6.3 6.5v.6L98 66.7z" style="clip-path:url(#b);fill:#f2802c"/><path d="m99.1 66.7 5.8 5.9v.6l-6.3-6.5z" style="clip-path:url(#b);fill:#f27f2c"/><path d="m99.7 66.7 5.2 5.3v.6l-5.8-5.9z" style="clip-path:url(#b);fill:#f27e2d"/><path d="m100.2 66.7 4.7 4.8v.5l-5.2-5.3z" style="clip-path:url(#b);fill:#f27e2d"/><path d="m100.8 66.7 4.1 4.2v.6l-4.7-4.8z" style="clip-path:url(#b);fill:#f27d2e"/><path d="m101.4 66.7 3.5 3.6v.6l-4.1-4.2z" style="clip-path:url(#b);fill:#f27c2f"/><path d="m101.9 66.7 3 3v.6l-3.5-3.6z" style="clip-path:url(#b);fill:#f27b2f"/><path d="m102.5 66.7 2.4 2.5v.5l-3-3z" style="clip-path:url(#b);fill:#f27a30"/><path d="m103 66.7 1.9 1.9v.6l-2.4-2.5z" style="clip-path:url(#b);fill:#f27931"/><path d="m103.6 66.7 1.3 1.3v.6l-1.9-1.9z" style="clip-path:url(#b);fill:#f27831"/><path d="m104.2 66.7.7.8v.5l-1.3-1.3z" style="clip-path:url(#b);fill:#f27732"/><path d="m104.7 66.7.2.2v.6l-.7-.8z" style="clip-path:url(#b);fill:#f27632"/><path d="m104.9 66.9-.2-.2h.2z" style="clip-path:url(#b);fill:#f27533"/><path d="M59.3 55.2v.1z" style="clip-path:url(#b);fill:#e7a81a"/><path d="m59.3 54.9.4.4h-.4v-.1z" style="clip-path:url(#b);fill:#e8a818"/><path d="m59.3 54.6.7.7h-.3l-.4-.4z" style="clip-path:url(#b);fill:#e9a818"/><path d="m59.3 54.3 1 1H60l-.7-.7z" style="clip-path:url(#b);fill:#eaa817"/><path d="m59.3 54 1.3 1.3h-.3l-1-1z" style="clip-path:url(#b);fill:#eaa816"/><path d="m59.3 53.6 1.6 1.7h-.3L59.3 54z" style="clip-path:url(#b);fill:#eba816"/><path d="m59.3 53.3 1.9 2h-.3l-1.6-1.7z" style="clip-path:url(#b);fill:#eca815"/><path d="m59.3 53 2.2 2.3h-.3l-1.9-2z" style="clip-path:url(#b);fill:#eda814"/><path d="m59.3 52.7 2.5 2.6h-.3L59.3 53z" style="clip-path:url(#b);fill:#eea714"/><path d="m59.3 52.4 2.8 2.9h-.3l-2.5-2.6z" style="clip-path:url(#b);fill:#efa713"/><path d="m59.3 52 3.1 3.3h-.3l-2.8-2.9z" style="clip-path:url(#b);fill:#efa712"/><path d="m59.3 51.7 3.5 3.6h-.4L59.3 52z" style="clip-path:url(#b);fill:#f0a712"/><path d="m59.3 51.4 3.8 3.9h-.3l-3.5-3.6z" style="clip-path:url(#b);fill:#f1a711"/><path d="m59.3 51.1 4.1 4.2h-.3l-3.8-3.9z" style="clip-path:url(#b);fill:#f2a710"/><path d="m59.3 50.5 4.6 4.8h-.5l-4.1-4.2z" style="clip-path:url(#b);fill:#f2a710"/><path d="m59.3 50 5.2 5.3h-.6l-4.6-4.8z" style="clip-path:url(#b);fill:#f2a611"/><path d="m59.3 49.4 5.7 5.9h-.5L59.3 50z" style="clip-path:url(#b);fill:#f2a511"/><path d="m59.3 48.8 6.3 6.5H65l-5.7-5.9z" style="clip-path:url(#b);fill:#f2a412"/><path d="m59.3 48.2 6.9 7.1h-.6l-6.3-6.5z" style="clip-path:url(#b);fill:#f2a312"/><path d="m59.3 47.7 7.4 7.6h-.5l-6.9-7.1z" style="clip-path:url(#b);fill:#f2a213"/><path d="m59.3 47.1 8 8.2h-.6l-7.4-7.6z" style="clip-path:url(#b);fill:#f2a114"/><path d="m59.3 46.5 8.5 8.8h-.5l-8-8.2z" style="clip-path:url(#b);fill:#f2a014"/><path d="m59.3 45.9 9.1 9.4h-.6l-8.5-8.8z" style="clip-path:url(#b);fill:#f29f14"/><path d="m59.3 45.4 9.7 9.9h-.6l-9.1-9.4z" style="clip-path:url(#b);fill:#f29e15"/><path d="m59.3 44.8 10.2 10.5H69l-9.7-9.9z" style="clip-path:url(#b);fill:#f29e15"/><path d="m59.3 44.2 10.8 11.1h-.6L59.3 44.8z" style="clip-path:url(#b);fill:#f29d16"/><path d="m59.3 43.7 11.3 11.6h-.5L59.3 44.2z" style="clip-path:url(#b);fill:#f29c17"/><path d="m59.3 43.1 11.9 12.2h-.6L59.3 43.7z" style="clip-path:url(#b);fill:#f29b18"/><path d="m59.3 42.5 12.5 12.8h-.6L59.3 43.1z" style="clip-path:url(#b);fill:#f29a18"/><path d="m59.3 41.9 13 13.4h-.5L59.3 42.5z" style="clip-path:url(#b);fill:#f29919"/><path d="m59.3 41.4 13.6 13.9h-.6l-13-13.4z" style="clip-path:url(#b);fill:#f2981a"/><path d="m59.3 40.8 14.1 14.5h-.5L59.3 41.4z" style="clip-path:url(#b);fill:#f2971b"/><path d="M59.3 40.2 74 55.3h-.6L59.3 40.8z" style="clip-path:url(#b);fill:#f2961c"/><path d="m59.3 39.6 15.2 15.7H74L59.3 40.2z" style="clip-path:url(#b);fill:#f2951c"/><path d="m59.3 39.1 15.8 16.2h-.6L59.3 39.6z" style="clip-path:url(#b);fill:#f2941d"/><path d="m59.3 38.5 16.4 16.8h-.6L59.3 39.1z" style="clip-path:url(#b);fill:#f2931e"/><path d="m59.3 37.9 16.9 17.4h-.5L59.3 38.5z" style="clip-path:url(#b);fill:#f2931f"/><path d="m59.3 37.4 17.5 17.9h-.6L59.3 37.9z" style="clip-path:url(#b);fill:#f2921f"/><path d="m59.3 36.8 18 18.5h-.5L59.3 37.4z" style="clip-path:url(#b);fill:#f29120"/><path d="m59.3 36.2 18.6 19.1h-.6l-18-18.5z" style="clip-path:url(#b);fill:#f29021"/><path d="m59.3 35.6 19.2 19.7h-.6L59.3 36.2z" style="clip-path:url(#b);fill:#f28f21"/><path d="M59.3 35.1 79 55.3h-.5L59.3 35.6z" style="clip-path:url(#b);fill:#f28e22"/><path d="m59.3 34.5 20.3 20.8H79L59.3 35.1z" style="clip-path:url(#b);fill:#f28d23"/><path d="m59.3 33.9 20.8 21.4h-.5L59.3 34.5z" style="clip-path:url(#b);fill:#f28c23"/><path d="m59.3 33.3 21.4 22h-.6L59.3 33.9z" style="clip-path:url(#b);fill:#f28b24"/><path d="m59.3 32.8 22 22.5h-.6l-21.4-22z" style="clip-path:url(#b);fill:#f28a25"/><path d="m59.3 32.2 22.4 23v.1h-.4l-22-22.5z" style="clip-path:url(#b);fill:#f28925"/><path d="M59.3 31.6 82 54.9l-.3.3-22.4-23z" style="clip-path:url(#b);fill:#f28926"/><path d="m59.3 31.1 23 23.5-.3.3-22.7-23.3z" style="clip-path:url(#b);fill:#f28826"/><path d="m59.3 30.5 23.3 23.8-.3.3-23-23.5z" style="clip-path:url(#b);fill:#f28727"/><path d="m59.3 29.9 23.6 24.2-.3.2-23.3-23.8z" style="clip-path:url(#b);fill:#f28627"/><path d="m59.3 29.3 23.9 24.5-.3.3-23.6-24.2z" style="clip-path:url(#b);fill:#f28528"/><path d="m59.3 28.8 24.1 24.7-.2.3-23.9-24.5z" style="clip-path:url(#b);fill:#f28429"/><path d="m59.3 28.2 24.4 25-.3.3-24.1-24.7z" style="clip-path:url(#b);fill:#f28329"/><path d="M59.3 27.6 84 52.9l-.3.3-24.4-25z" style="clip-path:url(#b);fill:#f2822a"/><path d="m59.3 27.1 25 25.6-.3.2-24.7-25.3z" style="clip-path:url(#b);fill:#f2812b"/><path d="m59.3 26.5 25.3 25.9-.3.3-25-25.6z" style="clip-path:url(#b);fill:#f2802c"/><path d="m59.3 25.9 25.6 26.2-.3.3-25.3-25.9z" style="clip-path:url(#b);fill:#f27f2c"/><path d="m59.3 25.3 25.9 26.5-.3.3-25.6-26.2z" style="clip-path:url(#b);fill:#f27e2d"/><path d="m59.3 24.8 26.2 26.7-.3.3-25.9-26.5z" style="clip-path:url(#b);fill:#f27e2d"/><path d="m59.3 24.2 26.4 27.1-.2.2-26.2-26.7z" style="clip-path:url(#b);fill:#f27d2e"/><path d="M59.3 23.6 86 51l-.3.3-26.4-27.1z" style="clip-path:url(#b);fill:#f27c2f"/><path d="m59.3 23 27 27.7-.3.3-26.7-27.4z" style="clip-path:url(#b);fill:#f27b2f"/><path d="m59.3 22.5 27.3 27.9-.3.3-27-27.7z" style="clip-path:url(#b);fill:#f27a30"/><path d="m59.3 21.9 27.6 28.3-.3.2-27.3-27.9z" style="clip-path:url(#b);fill:#f27931"/><path d="m59.3 21.3 27.9 28.6-.3.3-27.6-28.3z" style="clip-path:url(#b);fill:#f27831"/><path d="m59.3 20.8 28.2 28.8-.3.3-27.9-28.6z" style="clip-path:url(#b);fill:#f27732"/><path d="m59.3 20.2 28.4 29.1-.2.3-28.2-28.8z" style="clip-path:url(#b);fill:#f27632"/><path d="M59.3 19.6 88 49l-.3.3-28.4-29.1z" style="clip-path:url(#b);fill:#f27533"/><path d="m59.3 19 29 29.8-.3.2-28.7-29.4z" style="clip-path:url(#b);fill:#f27533"/><path d="m59.3 18.5 29.3 30-.3.3-29-29.8z" style="clip-path:url(#b);fill:#f27434"/><path d="m59.3 17.9 29.6 30.3-.3.3-29.3-30z" style="clip-path:url(#b);fill:#f27335"/><path d="m59.3 17.3 29.9 30.6-.3.3-29.6-30.3z" style="clip-path:url(#b);fill:#f27235"/><path d="m59.3 16.7 30.2 30.9-.3.3-29.9-30.6z" style="clip-path:url(#b);fill:#f27136"/><path d="m59.3 16.2 30.4 31.2-.2.2-30.2-30.9z" style="clip-path:url(#b);fill:#f27036"/><path d="M59.3 15.6 90 47.1l-.3.3-30.4-31.2z" style="clip-path:url(#b);fill:#f26f37"/><path d="m59.3 15 31 31.8-.3.3-30.7-31.5z" style="clip-path:url(#b);fill:#f26e37"/><path d="m59.3 14.5 31.3 32-.3.3-31-31.8z" style="clip-path:url(#b);fill:#f26d38"/><path d="m59.3 13.9 31.6 32.3-.3.3-31.3-32z" style="clip-path:url(#b);fill:#f26c39"/><path d="M59.3 13.3 91.2 46l-.3.2-31.6-32.3z" style="clip-path:url(#b);fill:#f26b39"/><path d="m59.3 12.7 32.2 33-.3.3-31.9-32.7z" style="clip-path:url(#b);fill:#f26a3a"/><path d="m59.3 12.2 32.4 33.2-.2.3-32.2-33z" style="clip-path:url(#b);fill:#f26a3a"/><path d="M59.3 11.6 92 45.1l-.3.3-32.4-33.2z" style="clip-path:url(#b);fill:#f2693b"/><path d="m59.3 11 33 33.8-.3.3-32.7-33.5z" style="clip-path:url(#b);fill:#f2683b"/><path d="m59.3 10.5 33.3 34.1-.3.2-33-33.8z" style="clip-path:url(#b);fill:#f2673c"/><path d="m59.3 9.9 33.6 34.4-.3.3-33.3-34.1z" style="clip-path:url(#b);fill:#f2663c"/><path d="M59.3 9.3 93.2 44l-.3.3L59.3 9.9z" style="clip-path:url(#b);fill:#f2653d"/><path d="m59.3 8.7 34.2 35-.3.3L59.3 9.3z" style="clip-path:url(#b);fill:#f2643d"/><path d="m59.3 8.2 34.5 35.2-.3.3-34.2-35z" style="clip-path:url(#b);fill:#f2633e"/><path d="M59.3 7.6 94 43.2l-.2.2L59.3 8.2z" style="clip-path:url(#b);fill:#f2623e"/><path d="m59.3 7 35 35.9-.3.3L59.3 7.6z" style="clip-path:url(#b);fill:#f2613f"/><path d="m59.3 6.4 35.3 36.2-.3.3L59.3 7z" style="clip-path:url(#b);fill:#f2603f"/><path d="m59.3 5.9 35.6 36.4-.3.3L59.3 6.4z" style="clip-path:url(#b);fill:#f26040"/><path d="m59.3 5.3 35.9 36.8-.3.2L59.3 5.9z" style="clip-path:url(#b);fill:#f15f40"/><path d="m59.3 4.7 36.2 37.1-.3.3L59.3 5.3z" style="clip-path:url(#b);fill:#f15e41"/><path d="m59.3 4.2 36.5 37.3-.3.3L59.3 4.7z" style="clip-path:url(#b);fill:#f15d41"/><path d="M59.3 3.6 96 41.2l-.2.3L59.3 4.2z" style="clip-path:url(#b);fill:#f15c42"/><path d="m59.3 3 37 37.9-.3.3L59.3 3.6z" style="clip-path:url(#b);fill:#f15b42"/><path d="m59.3 2.4 37.3 38.3-.3.2L59.3 3z" style="clip-path:url(#b);fill:#f15a43"/><path d="m59.3 1.9 37.6 38.5-.3.3L59.3 2.4z" style="clip-path:url(#b);fill:#f15943"/><path d="m59.3 1.3 37.9 38.8-.3.3L59.3 1.9z" style="clip-path:url(#b);fill:#f15844"/><path d="m59.3.7 38.2 39.1-.3.3L59.3 1.3z" style="clip-path:url(#b);fill:#f15844"/><path d="m59.3.1 38.5 39.4-.3.3L59.3.7z" style="clip-path:url(#b);fill:#f15745"/><path d="M59.3-.4 98 39.3l-.2.2L59.3.1z" style="clip-path:url(#b);fill:#f15645"/><path d="M59.6-.7 98.3 39l-.3.3L59.3-.4v-.3z" style="clip-path:url(#b);fill:#f15546"/><path d="m60.1-.7 38.5 39.4-.3.3L59.6-.7z" style="clip-path:url(#b);fill:#f15446"/><path d="m60.7-.7 38.2 39.1-.3.3L60.1-.7z" style="clip-path:url(#b);fill:#f15347"/><path d="m61.3-.7 37.9 38.8-.3.3L60.7-.7z" style="clip-path:url(#b);fill:#f15247"/><path d="m61.8-.7 37.7 38.6-.3.2L61.3-.7z" style="clip-path:url(#b);fill:#f15148"/><path d="m62.4-.7 37.4 38.3-.3.3L61.8-.7z" style="clip-path:url(#b);fill:#f15048"/><path d="m62.9-.7 37.1 38-.2.3L62.4-.7z" style="clip-path:url(#b);fill:#f14f48"/><path d="M63.5-.7 100.3 37l-.3.3-37.1-38z" style="clip-path:url(#b);fill:#f14e49"/><path d="m64-.7 36.6 37.4-.3.3L63.5-.7z" style="clip-path:url(#b);fill:#f14d49"/><path d="m64.6-.7 36.3 37.2-.3.2L64-.7z" style="clip-path:url(#b);fill:#f14c4a"/><path d="m65.2-.7 36 36.9-.3.3L64.6-.7z" style="clip-path:url(#b);fill:#f14c4a"/><path d="m65.7-.7 35.8 36.6-.3.3-36-36.9z" style="clip-path:url(#b);fill:#f14b4b"/><path d="m66.3-.7 35.5 36.3-.3.3L65.7-.7z" style="clip-path:url(#b);fill:#f14a4b"/><path d="m66.8-.7 35.2 36-.2.3L66.3-.7z" style="clip-path:url(#b);fill:#f1494b"/><path d="m67.4-.7 34.9 35.8-.3.2-35.2-36z" style="clip-path:url(#b);fill:#f1484c"/><path d="m68-.7 34.6 35.5-.3.3L67.4-.7z" style="clip-path:url(#b);fill:#f1474c"/><path d="m68.5-.7 34.4 35.2-.3.3L68-.7z" style="clip-path:url(#b);fill:#f1464d"/><path d="m69.1-.7 34.1 34.9-.3.3L68.5-.7z" style="clip-path:url(#b);fill:#f1464d"/><path d="M69.6-.7 103.5 34l-.3.2L69.1-.7z" style="clip-path:url(#b);fill:#f1454d"/><path d="m70.2-.7 33.6 34.4-.3.3L69.6-.7z" style="clip-path:url(#b);fill:#f1444e"/><path d="m70.7-.7 33.4 34.1-.3.3L70.2-.7z" style="clip-path:url(#b);fill:#f1434e"/><path d="m71.3-.7 33 33.8-.2.3L70.7-.7z" style="clip-path:url(#b);fill:#f1424f"/><path d="m71.9-.7 32.7 33.5-.3.3-33-33.8z" style="clip-path:url(#b);fill:#f1414f"/><path d="m72.4-.7 32.5 33.2v.1l-.3.2L71.9-.7z" style="clip-path:url(#b);fill:#f0404f"/><path d="M73-.7 104.9 32v.5L72.4-.7z" style="clip-path:url(#b);fill:#f03f50"/><path d="m73.5-.7 31.4 32.1v.6L73-.7z" style="clip-path:url(#b);fill:#f03e50"/><path d="m74.1-.7 30.8 31.5v.6L73.5-.7z" style="clip-path:url(#b);fill:#f03e51"/><path d="m74.7-.7 30.2 30.9v.6L74.1-.7z" style="clip-path:url(#b);fill:#f03d51"/><path d="m75.2-.7 29.7 30.4v.5L74.7-.7z" style="clip-path:url(#b);fill:#f03c51"/><path d="m75.8-.7 29.1 29.8v.6L75.2-.7z" style="clip-path:url(#b);fill:#f03b52"/><path d="m76.3-.7 28.6 29.2v.6L75.8-.7z" style="clip-path:url(#b);fill:#f03a52"/><path d="m76.9-.7 28 28.7v.5L76.3-.7z" style="clip-path:url(#b);fill:#f03952"/><path d="m77.5-.7 27.4 28.1v.6L76.9-.7z" style="clip-path:url(#b);fill:#f03853"/><path d="m78-.7 26.9 27.5v.6L77.5-.7z" style="clip-path:url(#b);fill:#f03753"/><path d="M104.9 26.8 78-.7h26.9z" style="clip-path:url(#b);fill:#f03753"/><path d="M158.1 107.8V37.2c0-1.6.4-2.7 1.1-3.4s1.8-1 3.4-1H200c1.2 0 2 .4 2.5 1.3s.8 2.3.8 4.3v3.4c0 2-.3 3.4-.8 4.3s-1.4 1.3-2.5 1.3h-24.6v16.4h23.8c1.2 0 2 .4 2.6 1.3.5.9.8 2.3.8 4.2v3.5c0 2-.3 3.4-.8 4.3s-1.4 1.4-2.6 1.4h-23.8v29.3c0 2.4-2.2 3.5-6.7 3.5h-3.8c-4.5 0-6.8-1.2-6.8-3.5m58.3 1.1c0-.5.1-1.1.4-2l24.7-72c.6-1.6 2.7-2.4 6.4-2.4h5.8c3.7 0 5.8.8 6.4 2.4l24.7 72c.2.8.3 1.5.3 2 0 .8-.5 1.5-1.4 1.9q-1.35.6-4.2.6h-4.9c-1.8 0-3.2-.2-4.2-.5-1.1-.4-1.7-1-2-1.8l-4.5-13.7h-26.4l-4.5 13.7c-.5 1.6-2.2 2.3-5.2 2.3h-4.4c-4.8-.1-7-.9-7-2.5m42.5-28.4-6.4-19.9c-.4-1-.7-2.2-1-3.5s-.5-2.5-.7-3.7h-.4l-.3 1.4c-.4 2.5-.9 4.4-1.4 5.8l-6.6 19.9zm43.5 27.3V37.2c0-1.6.4-2.7 1.1-3.4s1.8-1 3.4-1h21.8c18.6 0 27.8 7 27.8 21 0 4.2-1.2 7.9-3.6 11s-5.6 5.4-9.5 6.9v.3c1.4.6 2.8 1.8 4.4 3.8 1.5 1.9 2.8 4.1 3.7 6.5l9.9 24.6c.3 1 .5 1.7.5 2.1 0 1.5-2.2 2.2-6.7 2.2h-4.6c-3.7 0-5.9-.8-6.5-2.3l-8.9-21.8q-1.2-2.55-2.4-3.9c-.8-.9-1.9-1.6-3.2-2.1-1.4-.5-3.3-.7-5.6-.7h-4.3v27.4c0 2.4-2.2 3.5-6.7 3.5h-3.8c-4.6 0-6.8-1.2-6.8-3.5m27.8-42.3c1.5 0 2.9-.4 4.3-1.3 1.3-.9 2.4-2 3.2-3.5q1.2-2.25 1.2-4.8c0-2.6-.8-4.7-2.5-6.2s-4-2.3-6.9-2.3h-9.8v18.1zm50.2 42.3V37.2c0-1.6.4-2.7 1.1-3.4s1.8-1 3.4-1h21.8c18.6 0 27.8 7 27.8 21 0 4.2-1.2 7.9-3.6 11s-5.6 5.4-9.5 6.9v.3c1.4.6 2.8 1.8 4.4 3.8 1.5 1.9 2.8 4.1 3.7 6.5l9.9 24.6c.3 1 .5 1.7.5 2.1 0 1.5-2.2 2.2-6.7 2.2h-4.6c-3.7 0-5.9-.8-6.5-2.3l-8.9-21.8q-1.2-2.55-2.4-3.9c-.8-.9-1.9-1.6-3.2-2.1-1.4-.5-3.3-.7-5.6-.7h-4.3v27.4c0 2.4-2.2 3.5-6.7 3.5h-3.8c-4.6 0-6.8-1.2-6.8-3.5m27.8-42.3c1.5 0 2.9-.4 4.3-1.3 1.3-.9 2.4-2 3.2-3.5q1.2-2.25 1.2-4.8c0-2.6-.8-4.7-2.5-6.2s-4-2.3-6.9-2.3h-9.8v18.1zm51.2 44.6c-.7-.7-1.1-1.8-1.1-3.4V37.2c0-1.6.4-2.7 1.1-3.4s1.8-1 3.4-1h41c1.2 0 2 .4 2.5 1.3s.8 2.3.8 4.3v3.4c0 2-.3 3.4-.8 4.3s-1.4 1.3-2.5 1.3h-28.2v16.2h25.2c1.2 0 2 .4 2.6 1.3.5.9.8 2.3.8 4.3v3.5c0 2-.3 3.4-.8 4.3s-1.4 1.3-2.6 1.3h-25.2v18.1h28.3c1.2 0 2 .4 2.5 1.3s.8 2.3.8 4.2v3.5c0 2-.3 3.4-.8 4.3s-1.4 1.3-2.5 1.3h-41.1c-1.5.1-2.6-.2-3.4-.9m70.9 0c-.7-.7-1.1-1.8-1.1-3.4V36.1c0-1.2.5-2.1 1.6-2.7q1.65-.9 5.1-.9h3.8q3.45 0 5.1.9c1.1.6 1.6 1.5 1.6 2.7v60.3h24.9c1.2 0 2 .4 2.5 1.3s.8 2.3.8 4.2v3.5c0 2-.3 3.4-.8 4.3s-1.4 1.3-2.5 1.3h-37.7q-2.25.15-3.3-.9m63.8 0c-.7-.7-1.1-1.8-1.1-3.4V36.1c0-1.2.5-2.1 1.6-2.7q1.65-.9 5.1-.9h3.8q3.45 0 5.1.9c1.1.6 1.6 1.5 1.6 2.7v60.3h24.9c1.2 0 2 .4 2.5 1.3s.8 2.3.8 4.2v3.5c0 2-.3 3.4-.8 4.3s-1.4 1.3-2.5 1.3h-37.7q-2.25.15-3.3-.9M164 159.4v15.7h-2.9v-40.8h11c4.7 0 10.8 2.3 10.8 7.8v9.4c0 5.2-5.4 7.9-10.8 7.9zm8-2.9c4 0 8-1.6 8-5v-9.4c0-3.7-5-4.9-7.9-5H164v19.3h8zm29.2-.3v18.9h-2.9v-40.8h2.9v19.1h18.1v-19.1h2.9v40.8h-2.9v-18.9zm48.9.3 7.5-7.8c1-1 1.5-1.8 1.5-3.4v-11h3v10.9c0 2.2-.6 3.7-2.2 5.3l-8.3 8.6V175h-2.9v-15.9l-8.3-8.6c-1.6-1.6-2.2-3.1-2.2-5.3v-10.9h3v11c0 1.6.5 2.3 1.5 3.4zm45.7-15.1c.1-5.8-11-6.1-14.7-2.5-2.4 2.3-3 7.5-.6 10.2 1.7 2 4.8 2.9 7.6 3.6 6.9 1.7 12.4 4.7 12.3 12.6-.1 3.3-1.6 6-3.8 7.9-3.7 3.1-10.1 3.1-14.6 1.7-3.4-1.2-5.9-3.8-5.9-7.5l2.9.1c.1 2.4 2.2 4.4 4.4 5.1 3.8 1 8.2 1.1 11.4-1.6 1.6-1.3 2.7-3.3 2.7-5.7.1-6.2-5.3-8.8-10.1-10-3.5-.9-6.8-1.9-8.9-4.1-3.6-3.8-3-11 .6-14.4 5.2-5 19.7-3.9 19.6 4.7zm23.2-7.1v40.8h-3v-40.8zm17.3 7.4c0-10.4 24.6-10.4 24.6 0v26c0 10.6-24.6 10.6-24.6 0zm21.6 25.7.1-25.7c0-6.9-18.8-6.9-18.8 0l.1 25.7c0 .8.1 1.3.2 1.5 1.7 5.1 16.5 5.1 18.3 0 0-.2.1-.8.1-1.5m17.7-33.1h25.1v2.6h-11.1l-.1 38.2h-3l.1-38.2h-11.1v-2.6zm43 21.9v18.9h-2.9v-40.8h2.9v19.1h18.1v-19.1h2.9v40.8h-2.9v-18.9zm40.5-3h18.8v3h-18.8c0 1.9-.2 11.1.2 12.3.9 2.7 5 3.7 7.8 3.7h10.8v3h-10.8v-.1c-5 .1-10.9-2.3-10.9-7.8v-33h21.7v2.9h-18.8zm38 6.3v15.6h-2.9v-40.8h11c1.4 0 10.8.1 10.8 7.8v9.7c0 3.1-2.4 5.8-5.5 6.5 3 .7 5.5 3.1 5.5 6.4v10.4h-2.9v-10.4c0-4-5.2-5.2-8.2-5.2zm16-17.4c0-3.7-5-5.2-7.9-5.2h-8.1v20h7.9c3.1 0 8.2-1 8.2-5v-9.8zm43.6-.3.1 33.3h-2.9v-16H535v16h-3v-33.3c0-2.7 1.5-4.7 3.6-6 4.3-2.6 13.2-2.6 17.4 0 2.2 1.3 3.7 3.3 3.7 6m-21.8 0v14.5h18.9v-14.5c0-1.5-.9-2.7-2.3-3.6-3.3-2-11.1-2-14.4 0-1.3.9-2.2 2.1-2.2 3.6m41.6 17.6v15.7h-2.9v-40.8h11c4.7 0 10.8 2.3 10.8 7.8v9.4c0 5.2-5.4 7.9-10.8 7.9zm8.1-2.9c4 0 8-1.6 8-5v-9.4c0-3.7-5-4.9-7.9-5h-8.1v19.3h8zm37.6 0 7.5-7.8c1-1 1.5-1.8 1.5-3.4v-11h3v10.9c0 2.2-.6 3.7-2.2 5.3l-8.3 8.6V175h-2.9v-15.9l-8.3-8.6c-1.6-1.6-2.2-3.1-2.2-5.3v-10.9h3v11c0 1.6.5 2.3 1.5 3.4z" style="fill:#fff"/></svg>