<svg xmlns="http://www.w3.org/2000/svg" xml:space="preserve" viewBox="0 0 512 512"><linearGradient id="a" x1="103.112" x2="416.614" y1="405.445" y2="99.456" gradientUnits="userSpaceOnUse"><stop offset="0" style="stop-color:#195667"/><stop offset=".402" style="stop-color:#44b7c3"/><stop offset=".695" style="stop-color:#f2a710"/><stop offset="1" style="stop-color:#f03753"/></linearGradient><path d="m279.1.8 106 66.7c4.7 3 4.7 9.8-.1 12.7l-106.8 65.4c-5 3.1-11.4-.6-11.4-6.4l.8-132.1c.1-5.9 6.5-9.4 11.5-6.3M267.6 189l-.8 132.1c0 5.9 6.4 9.5 11.4 6.4L385 262.1c4.7-2.9 4.8-9.8.1-12.7l-106-66.7c-5-3.1-11.4.4-11.5 6.3m125.8-97.3-106 66.7c-4.7 3-4.7 9.8.1 12.7l106.8 65.4c5 3.1 11.4-.6 11.4-6.4L404.9 98c-.1-5.8-6.5-9.4-11.5-6.3M107.6 280.5l-.8 132.1c0 5.9 6.4 9.5 11.4 6.4L225 353.6c4.7-2.9 4.8-9.8.1-12.7l-106-66.7c-5-3.1-11.5.4-11.5 6.3m125.8 85.2-106 66.7c-4.7 3-4.7 9.8.1 12.7l106.8 65.4c5 3.1 11.4-.6 11.4-6.4l-.8-132.1c-.1-5.9-6.6-9.5-11.5-6.3m4.2-183-106 66.7c-4.7 3-4.7 9.8.1 12.7l106.8 65.4c5 3.1 11.4-.6 11.4-6.4l-.8-132.1c0-5.9-6.5-9.4-11.5-6.3" style="fill:url(#a)"/></svg>